<?xml version="1.0" encoding="UTF-8"?>
<svg width="281px" height="47px" viewBox="0 0 281 47" version="1.1" xmlns="http://www.w3.org/2000/svg" xmlns:xlink="http://www.w3.org/1999/xlink">
    <!-- Generator: Sketch 60.1 (88133) - https://sketch.com -->
    <title>logo-continuum</title>
    <desc>Created with Sketch.</desc>
    <g id="Paginas" stroke="none" stroke-width="1" fill="none" fill-rule="evenodd">
        <g id="logo-continuum">
            <path d="M137.334037,9.74897785 L137.334037,12.9745878 L137.334037,13.0167084 L137.334037,29.2597713 C137.334037,31.6497344 137.930541,33.4820903 139.126124,34.7662235 C140.319991,36.0468648 142.039391,36.6895862 144.283681,36.6895862 L149.835548,36.6895862 L149.835548,31.9646568 L147.338891,31.9646568 C145.885367,31.9646568 144.86925,31.6226724 144.283681,30.9421953 C143.70047,30.2599723 143.410365,29.040002 143.410365,27.2816301 L143.410365,18.6582521 L149.835548,18.6582521 L149.835548,12.9745878 L143.410365,12.9745878 L143.410365,9.74897785 L137.334037,9.74897785 Z M85.2389361,15.9219397 C83.0195183,18.1536777 81.9103454,21.1333294 81.9103454,24.8536929 C81.9103454,28.5598706 83.0195183,31.5268643 85.2389361,33.752928 C87.458997,35.9798647 90.4333726,37.0950789 94.1597045,37.0950789 C97.8873227,37.0950789 100.849477,35.9829201 103.046809,33.764713 C105.247144,31.5451967 106.346025,28.5749293 106.346025,24.8536929 C106.346025,21.1333294 105.238996,18.1536777 103.02644,15.9219397 C100.816028,13.6869281 97.860092,12.5701862 94.1597045,12.5701862 C90.4333726,12.5701862 87.458997,13.6869281 85.2389361,15.9219397 Z M89.8280769,30.1200794 C88.8048848,28.8575522 88.2937176,27.0996165 88.2937176,24.8419078 C88.2937176,22.5992578 88.8078866,20.8487424 89.8400842,19.589707 C90.8716385,18.3282709 92.2962168,17.6995171 94.1170357,17.6995171 C95.9513626,17.6995171 97.3853755,18.3252155 98.4169297,19.5798861 C99.4491272,20.8306284 99.9630818,22.5874728 99.9630818,24.8419078 C99.9630818,27.0996165 99.4452677,28.8575522 98.4068521,30.1200794 C97.3680077,31.3795513 95.940213,32.0085235 94.1170357,32.0085235 C92.2835664,32.0085235 90.851269,31.3795513 89.8280769,30.1200794 Z M247.680758,12.9745878 L247.680758,36.6895862 L253.799969,36.6895862 L253.799969,18.1931794 L260.926077,18.1931794 L260.926077,36.6895862 L267.132557,36.6895862 L267.132557,18.1931794 L270.546486,18.1931794 C272.14131,18.1931794 273.193233,18.4714374 273.708045,19.0290445 C274.21857,19.5857786 274.476512,20.7352568 274.476512,22.4779155 L274.476512,36.6895862 L280.595295,36.6895862 L280.595295,21.6640928 C280.595295,18.5993269 279.849985,16.3843935 278.354864,15.0201657 C276.862316,13.6565926 274.424409,12.9745878 271.040285,12.9745878 L247.680758,12.9745878 Z M236.144546,12.9745878 L236.144546,31.4688122 L231.262085,31.4688122 C229.668545,31.4688122 228.606116,31.2049581 228.073078,30.6776866 C227.539183,30.148669 227.27631,29.0925983 227.27631,27.5112201 L227.27631,12.9745878 L221.197836,12.9745878 L221.197836,28.0155762 C221.197836,31.0469513 221.951293,33.2485718 223.452419,34.6263307 C224.956116,35.999943 227.39531,36.6895862 230.772788,36.6895862 L242.22259,36.6895862 L242.22259,12.9745878 L236.144546,12.9745878 Z M209.838946,12.9745878 L209.838946,31.4688122 L204.95434,31.4688122 C203.362946,31.4688122 202.299015,31.2049581 201.765978,30.6776866 C201.231225,30.148669 200.96685,29.0925983 200.96685,27.5112201 L200.96685,12.9745878 L194.892237,12.9745878 L194.892237,28.0155762 C194.892237,31.0469513 195.642477,33.2485718 197.144674,34.6263307 C198.644941,35.999943 201.088424,36.6895862 204.463971,36.6895862 L215.913988,36.6895862 L215.913988,12.9745878 L209.838946,12.9745878 Z M168.859588,12.9745878 L168.859588,36.6895862 L174.937632,36.6895862 L174.937632,18.1931794 L179.83253,18.1931794 C181.444508,18.1931794 182.5153,18.4576881 183.048981,18.9847415 C183.585235,19.5122313 183.853469,20.6608365 183.853469,22.4336125 L183.853469,36.6895862 L189.926582,36.6895862 L189.926582,21.6640928 C189.926582,18.5543691 189.190278,16.3300514 187.707807,14.9863383 C186.229625,13.6458987 183.759126,12.9745878 180.302958,12.9745878 L168.859588,12.9745878 Z M156.253656,36.6895862 L162.634669,36.6895862 L162.634669,12.9745878 L156.253656,12.9745878 L156.253656,36.6895862 Z M110.055633,12.9745878 L110.055633,36.6895862 L116.130246,36.6895862 L116.130246,18.1931794 L121.028574,18.1931794 C122.638408,18.1931794 123.712417,18.4576881 124.246741,18.9847415 C124.781279,19.5122313 125.047584,20.6608365 125.047584,22.4336125 L125.047584,36.6895862 L131.124341,36.6895862 L131.124341,21.6640928 C131.124341,18.5543691 130.383964,16.3300514 128.903423,14.9863383 C127.425026,13.6458987 124.956886,12.9745878 121.499003,12.9745878 L110.055633,12.9745878 Z M71.1704736,12.9745878 C69.1236606,12.9745878 67.4188408,13.1976306 66.0613745,13.6428434 C64.7041226,14.0913297 63.5209764,14.8137092 62.5104348,15.8086724 C61.4299937,16.8782741 60.5903415,18.2078016 59.9931936,19.7976912 C59.3964745,21.388672 59.0965068,23.0990309 59.0965068,24.9298592 C59.0965068,26.6727361 59.3996907,28.3274434 60.0039144,29.8874339 C60.6087813,31.4465516 61.4437163,32.7693134 62.5104348,33.8546285 C63.5059672,34.8495918 64.67389,35.5728442 66.019349,36.018057 C67.3630927,36.4645791 69.0792766,36.6895862 71.1704736,36.6895862 L79.4216216,36.6895862 L79.4216216,31.6028124 L72.9610598,31.6028124 C71.4116914,31.6028124 70.3355386,31.5451967 69.7321726,31.4269098 C69.1285922,31.31146 68.5991996,31.1124238 68.142494,30.8341656 C67.2202918,30.2508061 66.5373775,29.4836872 66.095681,28.5308446 C65.6569863,27.5810574 65.4361381,26.380729 65.4361381,24.9298592 C65.4361381,22.4139707 65.9741073,20.6470872 67.0545484,19.628554 C68.1358471,18.6128579 70.1035407,18.1032639 72.9610598,18.1032639 L79.4216216,18.1032639 L79.4216216,12.9745878 L71.1704736,12.9745878 Z" id="logotype" fill="#757684"></path>
            <path d="M8.93458882,5.37643658 C7.69835239,6.32880025 6.96103403,7.8794185 6.96103403,9.57447311 C6.96103403,10.3603641 7.1335074,11.105455 7.439536,11.7739641 L7.42613794,11.7783277 C8.13325752,13.3704005 8.94947554,14.9000733 9.87096402,16.3557825 L9.87415403,16.3789097 C10.3660541,17.3666188 10.100007,18.7651644 9.00476911,19.0725825 C5.96574992,19.9230553 3.23509867,24.6892374 3.10834881,28.0492375 C2.92205204,32.9007286 2.91099334,34.0121469 0.303901919,36.8467651 C0.166518686,36.9868378 0.0812390014,37.1757833 0.0812390014,37.3889469 C0.0812390014,37.8113469 0.418742392,38.1543288 0.837272117,38.1543288 C0.982524049,38.1543288 1.12011995,38.1120016 1.23559843,38.0389106 C3.65618041,36.8345469 5.40090492,35.9410923 6.1788428,32.4750559 C6.954016,29.0090194 8.66322504,26.012292 12.3732103,25.8493101 C14.2138479,25.7690192 14.6591738,27.4553466 14.5466726,28.5519285 C14.1904545,32.0541832 13.5601079,34.1522195 9.90095014,36.6172378 C4.35713262,40.3747652 3.82227375,42.4922199 3.08112736,45.7551291 C2.98734097,46.1683655 3.073046,46.5933837 3.45244489,46.7696746 C3.78037824,46.9215292 4.15658713,46.8168019 4.36372532,46.5401473 C7.29024338,41.698038 9.47667839,42.6667653 13.58818,41.3712017 C16.9317392,40.3189107 20.6508691,38.2197833 23.1752329,32.1074195 C23.3898144,31.6287285 24.0941693,30.573383 25.0384132,30.6754921 C26.1604472,30.795274 26.5492034,32.0011649 26.4564804,32.6712013 C25.9550104,38.116147 21.3715995,43.1013835 16.4313323,44.7768018 L16.4228257,44.7768018 C16.1238151,44.8786927 15.9064689,45.1656018 15.9064689,45.50422 C15.9064689,45.9264018 16.2124974,46.2652381 16.6286879,46.2652381 C23.9110625,46.8672018 30.9801317,40.9887288 31.7346762,33.6488741 C31.8897108,32.5531649 32.8900989,31.7932376 33.9687486,31.9509832 L33.96726,31.9553467 C36.050764,32.5389831 38.720167,32.5963649 38.720167,32.5963649 C41.0322885,32.5963649 42.9890426,31.0446558 43.6310858,28.9106193 L43.6200272,28.9472739 C44.2882285,26.824583 44.6495506,24.5629101 44.6495506,22.2163645 C44.6495506,10.0453095 34.9304313,0.178254553 22.9398099,0.178254553 C17.6020672,0.178254553 12.7156051,2.1333819 8.93458882,5.37643658 Z" id="isotype" fill="#65BB45"></path>
        </g>
    </g>
</svg>