<?xml version="1.0" encoding="UTF-8"?>
<svg width="264px" height="40px" viewBox="0 0 264 40" version="1.1" xmlns="http://www.w3.org/2000/svg" xmlns:xlink="http://www.w3.org/1999/xlink">
    <!-- Generator: Sketch 60.1 (88133) - https://sketch.com -->
    <title>logo-instagantt</title>
    <desc>Created with Sketch.</desc>
    <g id="Paginas" stroke="none" stroke-width="1" fill="none" fill-rule="evenodd">
        <g id="logo-instagantt">
            <path d="M79.2841061,31.220172 L73.0633476,31.220172 L73.0633476,1.21212121 L79.2841061,1.21212121 L79.2841061,31.220172 Z M90.1704335,8.92023315 L90.3570563,11.4964738 C91.131199,10.5346725 92.0643034,9.79615754 93.1563976,9.28090684 C94.2484918,8.76565614 95.4649835,8.50803465 96.8059093,8.50803465 C97.8703555,8.50803465 98.8380194,8.65573764 99.7089299,8.95114804 C100.57984,9.24655844 101.326324,9.73088683 101.948403,10.4041477 C102.570482,11.0774087 103.050858,11.9567567 103.389545,13.0422181 C103.728233,14.1276796 103.897574,15.4604414 103.897574,17.0405436 L103.897574,31.220172 L97.90491,31.220172 L97.90491,16.9993237 C97.90491,16.2848428 97.8254233,15.6940308 97.6664476,15.2268702 C97.5074718,14.7597096 97.2759237,14.3887346 96.9717962,14.1139342 C96.6676687,13.8391339 96.2944269,13.6433415 95.8520596,13.5265514 C95.4096924,13.4097612 94.8982129,13.351367 94.3176059,13.351367 C93.4328713,13.351367 92.67602,13.5437244 92.047029,13.9284449 C91.4180381,14.3131654 90.9100145,14.8352783 90.5229432,15.4947992 L90.5229432,31.220172 L84.5302791,31.220172 L84.5302791,8.92023315 L90.1704335,8.92023315 Z M120.589943,25.0578044 C120.589943,24.741784 120.527736,24.4532479 120.40332,24.1921876 C120.278904,23.9311272 120.0439,23.6872455 119.698301,23.4605352 C119.352701,23.2338249 118.882693,23.0174229 118.288262,22.8113226 C117.693831,22.6052223 116.926612,22.405995 115.986581,22.2136348 C114.839191,21.9663144 113.778217,21.6571686 112.803627,21.2861881 C111.829036,20.9152076 110.985786,20.4549239 110.273852,19.9053232 C109.561917,19.3557224 109.00551,18.7168211 108.604615,17.9886001 C108.203719,17.2603791 108.003275,16.4153807 108.003275,15.4535794 C108.003275,14.5192581 108.207175,13.6330402 108.614983,12.794899 C109.02279,11.9567579 109.6103,11.218243 110.377531,10.5793321 C111.144762,9.94042124 112.084778,9.43548313 113.197608,9.06450262 C114.310438,8.69352212 115.564945,8.50803465 116.961167,8.50803465 C118.412685,8.50803465 119.719031,8.68665221 120.880245,9.0438927 C122.041459,9.40113319 123.026402,9.89920139 123.835105,10.5381123 C124.643808,11.1770231 125.265877,11.9361478 125.701333,12.815509 C126.136788,13.6948702 126.354512,14.656657 126.354512,15.7008985 L120.361848,15.7008985 C120.361848,14.8490173 120.085373,14.1448519 119.532414,13.5883812 C118.979455,13.0319104 118.115469,12.7536792 116.940431,12.7536792 C115.931281,12.7536792 115.150238,12.9803861 114.597279,13.4338067 C114.04432,13.8872273 113.767844,14.4642995 113.767844,15.1650404 C113.767844,15.4948009 113.840419,15.7867719 113.985571,16.0409622 C114.130723,16.2951526 114.365727,16.5287294 114.69059,16.7416997 C115.015454,16.95467 115.44399,17.1504623 115.976213,17.3290825 C116.508437,17.5077028 117.16161,17.6725805 117.935752,17.8237207 C119.152262,18.0573011 120.2789,18.3458371 121.315698,18.6893376 C122.352496,19.0328381 123.247585,19.475947 124.000992,20.0186777 C124.754399,20.5614085 125.345365,21.2209195 125.773908,21.9972305 C126.202451,22.7735416 126.41672,23.7112838 126.41672,24.8104853 C126.41672,25.7997666 126.19554,26.7100292 125.753172,27.5413004 C125.310805,28.3725715 124.678368,29.0904767 123.855841,29.6950375 C123.033314,30.2995983 122.041459,30.7736219 120.880245,31.1171223 C119.719031,31.4606228 118.419596,31.6323705 116.981903,31.6323705 C115.405969,31.6323705 114.016681,31.4125335 112.813995,30.9728529 C111.611309,30.5331723 110.598717,29.9561001 109.776191,29.2416192 C108.953664,28.5271382 108.335051,27.7233592 107.920331,26.8302579 C107.505612,25.9371567 107.298255,25.037199 107.298255,24.1303578 L112.979881,24.1303578 C113.007529,24.7074386 113.135399,25.2055068 113.363495,25.6245773 C113.591591,26.0436479 113.892258,26.3837083 114.265505,26.6447686 C114.638752,26.905829 115.070745,27.0981864 115.561496,27.2218465 C116.052247,27.3455067 116.567183,27.4073358 117.106318,27.4073358 C118.253708,27.4073358 119.12115,27.1909338 119.708669,26.7581232 C120.296188,26.3253126 120.589943,25.7585454 120.589943,25.0578044 Z M137.448198,3.43799311 L137.448198,8.92023315 L141.284333,8.92023315 L141.284333,13.2895372 L137.448198,13.2895372 L137.448198,24.4188967 C137.448198,24.8860574 137.496582,25.2707721 137.593349,25.5730525 C137.690117,25.8753329 137.835267,26.1123447 138.028802,26.2840949 C138.222338,26.4558452 138.460798,26.5726336 138.74419,26.6344637 C139.027581,26.6962937 139.362808,26.7272083 139.749879,26.7272083 C140.109302,26.7272083 140.437617,26.7134685 140.734832,26.6859885 C141.032048,26.6585084 141.291244,26.6241589 141.512427,26.5829388 L141.512427,31.0965124 C141.014764,31.2476526 140.472181,31.3747459 139.884662,31.477796 C139.297143,31.5808462 138.630146,31.6323705 137.883651,31.6323705 C136.902149,31.6323705 136.017428,31.5121471 135.229461,31.2716968 C134.441494,31.0312464 133.767586,30.6499667 133.207715,30.1278459 C132.647844,29.6057252 132.215851,28.9256045 131.911723,28.0874634 C131.607596,27.2493222 131.455534,26.239446 131.455534,25.0578044 L131.455534,13.2895372 L128.179268,13.2895372 L128.179268,8.92023315 L131.455534,8.92023315 L131.455534,3.43799311 L137.448198,3.43799311 Z M157.624192,31.220172 C157.347712,30.6843112 157.147268,30.0179303 157.022852,29.2210092 C156.414597,29.8942702 155.650834,30.4644724 154.731539,30.931633 C153.812245,31.3987936 152.689063,31.6323705 151.361962,31.6323705 C150.283691,31.6323705 149.278012,31.4674927 148.344894,31.1377323 C147.411775,30.8079718 146.603085,30.3476881 145.918798,29.7568673 C145.234511,29.1660465 144.69884,28.4618811 144.311769,27.64435 C143.924697,26.8268189 143.731164,25.9302961 143.731164,24.9547548 C143.731164,23.7868532 143.948889,22.7494973 144.384344,21.8426561 C144.819799,20.9358149 145.472973,20.1663854 146.343883,19.5343445 C147.214794,18.9023036 148.296504,18.4214102 149.589045,18.0916498 C150.881587,17.7618893 152.384922,17.5970116 154.099095,17.5970116 L156.774022,17.5970116 L156.774022,16.3191962 C156.774022,15.2886948 156.507914,14.4643061 155.975691,13.8460052 C155.443468,13.2277044 154.603674,12.9185586 153.456284,12.9185586 C152.447133,12.9185586 151.655723,13.1590053 151.082027,13.639906 C150.508332,14.1208066 150.221489,14.7803176 150.221489,15.6184588 L144.228825,15.6184588 C144.228825,14.6566575 144.453461,13.7429599 144.902741,12.8773387 C145.35202,12.0117176 145.991369,11.2560279 146.820808,10.610247 C147.650247,9.96446612 148.65247,9.4526581 149.827508,9.07480759 C151.002546,8.69695707 152.315804,8.50803465 153.767322,8.50803465 C155.066775,8.50803465 156.269443,8.6729124 157.375362,9.00267285 C158.48128,9.3324333 159.43512,9.8236316 160.23691,10.4762825 C161.038701,11.1289334 161.664227,11.9464522 162.113506,12.9288636 C162.562785,13.9112749 162.787421,15.0551143 162.787421,16.3604161 L162.787421,25.7997617 C162.787421,26.4318026 162.808157,26.9985698 162.849629,27.5000805 C162.891101,28.0015912 162.946396,28.455005 163.015516,28.8603356 C163.084636,29.2656661 163.17449,29.6297711 163.285082,29.9526616 C163.395674,30.275552 163.527,30.5812628 163.679064,30.8698032 L163.679064,31.220172 L157.624192,31.220172 Z M152.668321,27.077577 C153.179808,27.077577 153.653272,27.0157479 154.088727,26.8920877 C154.524183,26.7684276 154.914704,26.6069848 155.260304,26.4077545 C155.605903,26.2085242 155.90657,25.9783824 156.162314,25.717322 C156.418057,25.4562616 156.621958,25.1883353 156.774022,24.9135349 L156.774022,21.0800889 L154.306454,21.0800889 C153.518487,21.0800889 152.834211,21.1659627 152.253604,21.3377129 C151.672997,21.5094632 151.196077,21.7499099 150.822829,22.0590603 C150.449582,22.3682107 150.173106,22.7323158 149.993395,23.1513863 C149.813683,23.5704569 149.723829,24.0273057 149.723829,24.5219463 C149.723829,25.2639074 149.98648,25.875329 150.511791,26.3562297 C151.037102,26.8371303 151.755938,27.077577 152.668321,27.077577 Z M166.519877,19.9053232 C166.519877,18.2153009 166.730689,16.6695719 167.15232,15.26809 C167.573952,13.8666081 168.175286,12.6643745 168.95634,11.6613532 C169.737395,10.6583318 170.687779,9.8820324 171.807521,9.33243165 C172.927263,8.7828309 174.192138,8.50803465 175.602184,8.50803465 C176.915462,8.50803465 178.038643,8.72787165 178.971762,9.16755225 C179.90488,9.60723285 180.696291,10.2255244 181.346018,11.0224455 L181.594848,8.92023315 L187.027644,8.92023315 L187.027644,30.4576047 C187.027644,31.9827468 186.764992,33.3361184 186.239681,34.51776 C185.71437,35.6994016 184.978254,36.6989729 184.031312,37.516504 C183.084369,38.3340352 181.95082,38.9523267 180.630631,39.3713973 C179.310441,39.7904679 177.848577,40 176.244996,40 C175.553797,40 174.821137,39.9313009 174.046994,39.7939008 C173.272852,39.6565006 172.509088,39.4435335 171.755682,39.1549931 C171.002275,38.8664527 170.286895,38.5023477 169.60952,38.0626671 C168.932145,37.6229865 168.358459,37.1008736 167.888443,36.4963128 L170.542634,32.868966 C171.247657,33.652147 172.052891,34.2635687 172.958362,34.7032493 C173.863832,35.1429299 174.869511,35.3627669 175.97543,35.3627669 C177.565187,35.3627669 178.802414,34.9402676 179.687149,34.0952565 C180.571883,33.2502453 181.014244,32.0514467 181.014244,30.4988246 L181.014244,29.3034489 C180.350693,30.04541 179.56965,30.6190471 178.671092,31.0243777 C177.772533,31.4297082 176.73575,31.6323705 175.560712,31.6323705 C174.164491,31.6323705 172.909984,31.3472694 171.797153,30.7770586 C170.684323,30.2068478 169.737395,29.4202435 168.95634,28.4172222 C168.175286,27.4142008 167.573952,26.2222721 167.15232,24.8414002 C166.730689,23.4605283 166.519877,21.9594538 166.519877,20.3381316 L166.519877,19.9053232 Z M172.512541,20.3381316 C172.512541,21.2449728 172.602395,22.0899713 172.782107,22.8731524 C172.961819,23.6563334 173.24175,24.3398891 173.621909,24.9238399 C174.002069,25.5077907 174.478989,25.9680744 175.052684,26.3047049 C175.626379,26.6413353 176.307199,26.809648 177.095166,26.809648 C178.04902,26.809648 178.847343,26.6310305 179.490158,26.27379 C180.132973,25.9165495 180.640997,25.4150463 181.014244,24.7692654 L181.014244,15.3917496 C180.627173,14.7322287 180.119149,14.2272906 179.490158,13.8769201 C178.861167,13.5265496 178.076668,13.351367 177.136638,13.351367 C176.348671,13.351367 175.66785,13.5196797 175.094155,13.8563102 C174.52046,14.1929406 174.040084,14.6566593 173.653013,15.2474801 C173.265942,15.8383009 172.979098,16.5321615 172.792475,17.3290825 C172.605851,18.1260036 172.512541,18.9847419 172.512541,19.9053232 L172.512541,20.3381316 Z M204.632391,31.220172 C204.355911,30.6843112 204.155466,30.0179303 204.031051,29.2210092 C203.422796,29.8942702 202.659032,30.4644724 201.739738,30.931633 C200.820443,31.3987936 199.697262,31.6323705 198.37016,31.6323705 C197.29189,31.6323705 196.286211,31.4674927 195.353092,31.1377323 C194.419974,30.8079718 193.611283,30.3476881 192.926997,29.7568673 C192.24271,29.1660465 191.707039,28.4618811 191.319967,27.64435 C190.932896,26.8268189 190.739363,25.9302961 190.739363,24.9547548 C190.739363,23.7868532 190.957087,22.7494973 191.392543,21.8426561 C191.827998,20.9358149 192.481171,20.1663854 193.352082,19.5343445 C194.222992,18.9023036 195.304702,18.4214102 196.597244,18.0916498 C197.889786,17.7618893 199.393121,17.5970116 201.107294,17.5970116 L203.78222,17.5970116 L203.78222,16.3191962 C203.78222,15.2886948 203.516113,14.4643061 202.98389,13.8460052 C202.451666,13.2277044 201.611872,12.9185586 200.464482,12.9185586 C199.455332,12.9185586 198.663921,13.1590053 198.090226,13.639906 C197.516531,14.1208066 197.229688,14.7803176 197.229688,15.6184588 L191.237024,15.6184588 C191.237024,14.6566575 191.46166,13.7429599 191.910939,12.8773387 C192.360219,12.0117176 192.999568,11.2560279 193.829007,10.610247 C194.658445,9.96446612 195.660668,9.4526581 196.835706,9.07480759 C198.010745,8.69695707 199.324003,8.50803465 200.77552,8.50803465 C202.074974,8.50803465 203.277642,8.6729124 204.38356,9.00267285 C205.489478,9.3324333 206.443318,9.8236316 207.245109,10.4762825 C208.0469,11.1289334 208.672425,11.9464522 209.121705,12.9288636 C209.570984,13.9112749 209.79562,15.0551143 209.79562,16.3604161 L209.79562,25.7997617 C209.79562,26.4318026 209.816356,26.9985698 209.857828,27.5000805 C209.8993,28.0015912 209.954595,28.455005 210.023715,28.8603356 C210.092834,29.2656661 210.182689,29.6297711 210.293281,29.9526616 C210.403873,30.275552 210.535198,30.5812628 210.687262,30.8698032 L210.687262,31.220172 L204.632391,31.220172 Z M199.67652,27.077577 C200.188007,27.077577 200.661471,27.0157479 201.096926,26.8920877 C201.532381,26.7684276 201.922903,26.6069848 202.268502,26.4077545 C202.614102,26.2085242 202.914769,25.9783824 203.170512,25.717322 C203.426256,25.4562616 203.630156,25.1883353 203.78222,24.9135349 L203.78222,21.0800889 L201.314653,21.0800889 C200.526686,21.0800889 199.842409,21.1659627 199.261802,21.3377129 C198.681195,21.5094632 198.204275,21.7499099 197.831028,22.0590603 C197.45778,22.3682107 197.181305,22.7323158 197.001593,23.1513863 C196.821882,23.5704569 196.732027,24.0273057 196.732027,24.5219463 C196.732027,25.2639074 196.994679,25.875329 197.51999,26.3562297 C198.045301,26.8371303 198.764137,27.077577 199.67652,27.077577 Z M219.914721,8.92023315 L220.101343,11.4964738 C220.875486,10.5346725 221.808591,9.79615754 222.900685,9.28090684 C223.992779,8.76565614 225.209271,8.50803465 226.550196,8.50803465 C227.614643,8.50803465 228.582307,8.65573764 229.453217,8.95114804 C230.324128,9.24655844 231.070611,9.73088683 231.69269,10.4041477 C232.314769,11.0774087 232.795145,11.9567567 233.133833,13.0422181 C233.47252,14.1276796 233.641861,15.4604414 233.641861,17.0405436 L233.641861,31.220172 L227.649197,31.220172 L227.649197,16.9993237 C227.649197,16.2848428 227.56971,15.6940308 227.410735,15.2268702 C227.251759,14.7597096 227.020211,14.3887346 226.716083,14.1139342 C226.411956,13.8391339 226.038714,13.6433415 225.596347,13.5265514 C225.15398,13.4097612 224.6425,13.351367 224.061893,13.351367 C223.177158,13.351367 222.420307,13.5437244 221.791316,13.9284449 C221.162325,14.3131654 220.654302,14.8352783 220.26723,15.4947992 L220.26723,31.220172 L214.274566,31.220172 L214.274566,8.92023315 L219.914721,8.92023315 Z M245.357623,3.43799311 L245.357623,8.92023315 L249.193757,8.92023315 L249.193757,13.2895372 L245.357623,13.2895372 L245.357623,24.4188967 C245.357623,24.8860574 245.406006,25.2707721 245.502774,25.5730525 C245.599542,25.8753329 245.744691,26.1123447 245.938227,26.2840949 C246.131763,26.4558452 246.370223,26.5726336 246.653614,26.6344637 C246.937006,26.6962937 247.272232,26.7272083 247.659304,26.7272083 C248.018727,26.7272083 248.347042,26.7134685 248.644257,26.6859885 C248.941473,26.6585084 249.200668,26.6241589 249.421852,26.5829388 L249.421852,31.0965124 C248.924189,31.2476526 248.381606,31.3747459 247.794087,31.477796 C247.206568,31.5808462 246.539571,31.6323705 245.793076,31.6323705 C244.811574,31.6323705 243.926853,31.5121471 243.138886,31.2716968 C242.350919,31.0312464 241.67701,30.6499667 241.117139,30.1278459 C240.557268,29.6057252 240.125275,28.9256045 239.821148,28.0874634 C239.51702,27.2493222 239.364959,26.239446 239.364959,25.0578044 L239.364959,13.2895372 L236.088693,13.2895372 L236.088693,8.92023315 L239.364959,8.92023315 L239.364959,3.43799311 L245.357623,3.43799311 Z M259.706839,3.43799311 L259.706839,8.92023315 L263.542974,8.92023315 L263.542974,13.2895372 L259.706839,13.2895372 L259.706839,24.4188967 C259.706839,24.8860574 259.755223,25.2707721 259.85199,25.5730525 C259.948758,25.8753329 260.093908,26.1123447 260.287444,26.2840949 C260.480979,26.4558452 260.719439,26.5726336 261.002831,26.6344637 C261.286222,26.6962937 261.621449,26.7272083 262.00852,26.7272083 C262.367943,26.7272083 262.696258,26.7134685 262.993473,26.6859885 C263.290689,26.6585084 263.549885,26.6241589 263.771068,26.5829388 L263.771068,31.0965124 C263.273405,31.2476526 262.730822,31.3747459 262.143303,31.477796 C261.555784,31.5808462 260.888787,31.6323705 260.142292,31.6323705 C259.16079,31.6323705 258.276069,31.5121471 257.488102,31.2716968 C256.700135,31.0312464 256.026227,30.6499667 255.466356,30.1278459 C254.906485,29.6057252 254.474492,28.9256045 254.170364,28.0874634 C253.866237,27.2493222 253.714175,26.239446 253.714175,25.0578044 L253.714175,13.2895372 L250.437909,13.2895372 L250.437909,8.92023315 L253.714175,8.92023315 L253.714175,3.43799311 L259.706839,3.43799311 Z" id="Instagantt" fill="#0F82F5"></path>
            <g id="Isotype" stroke="#0F82F5" stroke-width="1.93821615">
                <path d="M15.4907918,13.8723339 C13.8851209,13.8723339 12.5834675,15.1739873 12.5834675,16.7796581 L12.5834675,19.3493741 C12.5834675,20.955045 13.8851209,22.2566984 15.4907918,22.2566984 L38.7095523,22.2566984 C40.3152232,22.2566984 41.6168766,20.955045 41.6168766,19.3493741 L41.6168766,16.7796581 C41.6168766,15.1739873 40.3152232,13.8723339 38.7095523,13.8723339 L15.4907918,13.8723339 Z" id="Rectangle-12"></path>
                <rect id="Rectangle-12" x="12.5834675" y="26.7709958" width="29.033409" height="8.38436449" rx="3.8764323"></rect>
                <path d="M26.131064,22.2566984 L26.131064,13.8723339 L15.4902819,13.8723339 C13.8848927,13.8723339 12.5834675,15.173759 12.5834675,16.7791483 L12.5834675,19.3493741 C12.5834675,20.955045 13.8851209,22.2566984 15.4907918,22.2566984 L26.131064,22.2566984 Z" id="Rectangle-12" fill="#0F82F5"></path>
                <path d="M26.131064,35.1553603 L26.131064,26.7709958 L15.4907918,26.7709958 C13.8851209,26.7709958 12.5834675,28.0726492 12.5834675,29.67832 L12.5834675,32.2480361 C12.5834675,33.8537069 13.8851209,35.1553603 15.4907918,35.1553603 L26.131064,35.1553603 Z" id="Rectangle-12" fill="#0F82F5"></path>
                <rect id="Rectangle-12" fill="#0F82F5" x="0.969108076" y="0.969108076" width="29.033409" height="8.38436449" rx="3.8764323"></rect>
            </g>
        </g>
    </g>
</svg>