<?xml version="1.0" encoding="UTF-8"?>
<svg width="250px" height="48px" viewBox="0 0 250 48" version="1.1" xmlns="http://www.w3.org/2000/svg" xmlns:xlink="http://www.w3.org/1999/xlink">
    <!-- Generator: Sketch 60.1 (88133) - https://sketch.com -->
    <title>logo-lemontech</title>
    <desc>Created with Sketch.</desc>
    <g id="Paginas" stroke="none" stroke-width="1" fill="none" fill-rule="evenodd">
        <g id="logo-lemontech">
            <g id="Logotype/Lemontech" transform="translate(42.929727, 7.221177)" fill="#5E7C8B">
                <path d="M175.276709,7.9590004 C179.182281,7.9590004 182.014895,9.30142872 183.645793,11.5099398 L183.645793,11.5099398 L179.311037,15.6671372 C178.967689,15.0608792 177.723056,13.3287137 175.276709,13.3287137 C172.487014,13.3287137 170.684442,15.0608792 170.684442,20.3872884 C170.684442,25.5837851 172.186585,28.0088169 175.23379,28.0088169 C177.379709,28.0088169 178.753098,26.7096927 179.353955,25.6270892 L179.353955,25.6270892 L183.47412,29.4811576 C182.100731,31.3432356 179.783139,33.3785301 174.632933,33.3785301 C168.06642,33.3785301 164.075011,29.7409824 164.075011,20.906938 C164.075011,12.2894143 168.710196,7.9590004 175.276709,7.9590004 Z M151.800353,7.9590004 C157.9806,7.9590004 161.542826,11.8996771 161.542826,17.8756483 C161.542826,19.1314683 161.499908,20.3439842 161.242398,22.2493664 L146.778903,22.2493664 C146.864739,26.1034347 148.581475,28.2253376 152.701639,28.2253376 C155.319661,28.2253376 157.122233,26.9695175 158.023519,26.0168265 L160.856132,30.6503694 C158.967723,32.2093184 156.607212,33.3785301 151.972027,33.3785301 C144.332555,33.3785301 140.426982,29.0481162 140.426982,20.6038091 C140.426982,12.6791516 144.804657,7.9590004 151.800353,7.9590004 Z M85.2768607,8.00230454 C93.6459452,8.00230454 96.2639666,13.0255847 96.2639666,20.6038091 C96.2639666,28.1387293 93.0880063,33.3785301 85.0622687,33.3785301 C76.7361026,33.3785301 74.1180812,28.35525 74.1180812,20.7770256 C74.1180812,13.2421054 77.2511231,8.00230454 85.2768607,8.00230454 Z M23.1739613,7.9590004 C29.3542084,7.9590004 32.9164341,11.8996771 32.9164341,17.8756483 C32.9164341,19.1314683 32.8735157,20.3439842 32.6160054,22.2493664 L18.1525106,22.2493664 C18.2383473,26.1034347 19.9550826,28.2253376 24.0752473,28.2253376 C26.6932687,28.2253376 28.4958407,26.9695175 29.3971267,26.0168265 L32.22974,30.6503694 C30.3413312,32.2093184 27.9808201,33.3785301 23.3456348,33.3785301 C15.7061628,33.3785301 11.80059,29.0481162 11.80059,20.6038091 C11.80059,12.6791516 16.178265,7.9590004 23.1739613,7.9590004 Z M6.95081274,0.0776470605 L6.95081274,25.1940478 C6.95081274,27.0128217 7.76626201,27.6190796 8.96797672,27.6190796 C9.44007892,27.6190796 9.65467083,27.5757755 9.86926275,27.5324713 L9.86926275,27.5324713 L9.86926275,32.6856639 C9.09673186,32.9887929 8.19544583,33.2919219 6.77913921,33.2919219 C2.83064803,33.2919219 0.470136996,30.9534983 0.470136996,26.8829092 L0.470136996,26.8829092 L0.470136996,0.0776470605 L6.95081274,0.0776470605 Z M132.229571,2.28615816 L132.229571,8.43534593 L138.281063,8.43534593 L138.281063,13.4153219 L132.229571,13.4153219 L132.229571,25.237352 C132.229571,26.9262134 133.173775,27.7922962 134.761756,27.7922962 C135.791797,27.7922962 137.122267,27.4458631 138.066471,26.7096927 L138.066471,26.7096927 L139.740288,31.6030604 C138.924839,32.2093184 137.03643,33.1187053 133.002102,33.1187053 C128.839019,33.1187053 125.834732,30.9968025 125.834732,25.0641354 L125.834732,25.0641354 L125.834732,13.4153219 L122.744609,13.4153219 L122.744609,9.34473286 L125.87765,8.04560868 L128.109406,2.28615816 L132.229571,2.28615816 Z M192.615735,0.0776470605 L192.615735,10.9036819 L192.787409,10.9036819 C194.160797,9.47464528 196.392553,8.26212938 199.182248,8.26212938 C203.90327,8.26212938 206.607128,10.9036819 206.607128,16.4033076 L206.607128,16.4033076 L206.607128,32.9021846 L200.126452,32.9021846 L200.126452,17.7024317 C200.126452,15.1041834 198.967656,13.8050592 196.778818,13.8050592 C195.233756,13.8050592 193.431184,14.974271 192.615735,16.4899158 L192.615735,16.4899158 L192.615735,32.9021846 L186.135059,32.9021846 L186.135059,0.0776470605 L192.615735,0.0776470605 Z M113.002136,7.82908798 C117.723158,7.82908798 120.427016,10.4706405 120.427016,15.9702662 L120.427016,15.9702662 L120.427016,32.9021846 L113.94634,32.9021846 L113.94634,17.3559986 C113.94634,14.8443585 112.787544,13.3720178 110.598706,13.3720178 C108.710297,13.3720178 107.165236,14.4979254 106.435623,16.2733951 L106.435623,16.2733951 L106.435623,32.9021846 L99.9549474,32.9021846 L99.9549474,8.43534593 L105.019317,8.43534593 L106.306868,10.7304653 L106.478542,10.7304653 C107.937767,8.9549956 110.469951,7.82908798 113.002136,7.82908798 Z M63.0451386,7.87239212 C67.809079,7.87239212 70.5129371,10.4273363 70.5129371,16.0135703 L70.5129371,16.0135703 L70.5129371,32.9021846 L64.0322614,32.9021846 L64.0322614,17.1827821 C64.0322614,14.3247089 62.5730364,13.3720178 60.8992194,13.3720178 C59.2683209,13.3720178 57.594504,14.4546213 56.8648915,16.1867869 L56.8648915,16.1867869 L56.8648915,32.9021846 L50.3842158,32.9021846 L50.3842158,17.6591276 C50.3842158,14.8010544 49.182501,13.3720178 46.9507452,13.3720178 C45.362765,13.3720178 43.8177032,14.671142 43.2168459,16.2733951 L43.2168459,16.2733951 L43.2168459,32.9021846 L36.7361701,32.9021846 L36.7361701,8.43534593 L42.0580496,8.43534593 L43.1310091,10.7304653 L43.3026827,10.7304653 C44.804826,8.78177905 47.2940922,7.87239212 49.6975216,7.87239212 C53.3885025,7.87239212 54.8906459,9.43134114 55.7490136,11.1635067 L55.7490136,11.1635067 L55.9206871,11.1635067 C57.1653202,9.47464528 59.611668,7.87239212 63.0451386,7.87239212 Z M85.0193504,13.112193 C82.057982,13.112193 80.7704305,15.5372248 80.7704305,20.5172008 C80.7704305,25.5837851 82.0150636,28.2686417 85.2768607,28.2686417 C88.5815761,28.2686417 89.6116173,25.8436099 89.6116173,20.8636339 C89.6116173,15.7970496 88.3669842,13.112193 85.0193504,13.112193 Z M151.62868,12.8956723 C148.71023,12.8956723 146.993495,15.0608792 146.907658,17.9189524 L155.448416,17.9189524 L155.448416,17.2693903 C155.448416,14.4113171 154.246701,12.8956723 151.62868,12.8956723 Z M23.0022878,12.8956723 C20.0838378,12.8956723 18.3671025,15.0608792 18.2812657,17.9189524 L26.8220238,17.9189524 L26.8220238,17.2693903 C26.8220238,14.4113171 25.6203091,12.8956723 23.0022878,12.8956723 Z" id="Mask"></path>
            </g>
            <path d="M5.42465765,47.437648 L15.3698633,47.437648 C23.8584045,47.437648 30.7397267,40.4935844 30.7397267,31.9276477 L30.7397267,16.4176474 L15.3698633,16.4176474 C6.88132221,16.4176474 6.1817218e-13,23.3617111 6.1817218e-13,31.9276477 L6.1817218e-13,41.9635303 C6.1817218e-13,44.986802 2.42870196,47.437648 5.42465765,47.437648 Z" id="Path" fill="#C8DC00"></path>
            <path d="M16.273973,2.23021601e-12 L23.5068498,2.23021601e-12 C27.5014574,2.23021601e-12 30.7397267,3.26690836 30.7397267,7.29882369 L30.7397267,14.5976474 L23.5068498,14.5976474 C19.5122422,14.5976474 16.273973,11.330739 16.273973,7.29882369 L16.273973,2.23021601e-12 Z" id="Path" fill="#64B432"></path>
        </g>
    </g>
</svg>