<?xml version="1.0" encoding="UTF-8"?>
<svg width="260px" height="48px" viewBox="0 0 260 48" version="1.1" xmlns="http://www.w3.org/2000/svg" xmlns:xlink="http://www.w3.org/1999/xlink">
    <!-- Generator: Sketch 60.1 (88133) - https://sketch.com -->
    <title>logo-lets-talk</title>
    <desc>Created with Sketch.</desc>
    <defs>
        <linearGradient x1="50.0001993%" y1="-0.00053337817%" x2="119.056558%" y2="197.564308%" id="linearGradient-1">
            <stop stop-color="#FF008C" offset="0%"></stop>
            <stop stop-color="#59008C" offset="100%"></stop>
        </linearGradient>
    </defs>
    <g id="Paginas" stroke="none" stroke-width="1" fill="none" fill-rule="evenodd">
        <g id="logo-lets-talk">
            <path d="M145.481537,11.0008043 C147.820747,11.0008043 150.194357,11.2622038 152.565944,11.7548413 C152.994934,11.9177133 153.225617,12.1469405 153.225617,12.442523 L153.225617,15.6175215 C153.225617,16.0438037 152.994934,16.273031 152.565944,16.273031 L144.558804,16.273031 C142.946044,16.273031 142.120441,16.8621852 142.120441,18.0083215 L142.120441,18.4024315 C142.120441,19.3515127 142.680961,20.0391945 143.802001,20.4634659 L149.502307,22.5606942 C151.24862,23.2141929 152.533567,24.0325744 153.29037,25.0158386 C154.049197,25.9649199 154.443787,27.5051661 154.443787,29.5662006 L154.443787,30.4167543 C154.443787,35.0354823 151.017937,37 144.558804,37 C142.088064,37 139.354264,36.7365897 136.353357,36.1796077 C135.926391,36.083091 135.728084,35.8196808 135.728084,35.3612263 L135.728084,32.4154551 C135.728084,31.9570006 135.958767,31.7277733 136.420134,31.7277733 L145.942904,31.7277733 C147.49091,31.7277733 148.282114,31.2029636 148.282114,30.1231826 L148.282114,29.7954278 C148.282114,28.6171193 147.65684,28.1264926 145.97528,27.5051661 L140.276997,25.4421209 C137.342867,24.3945122 135.958767,22.5606942 135.958767,18.269721 L135.958767,17.549867 C135.958767,12.8688053 138.923251,11.0008043 145.481537,11.0008043 Z M200.989391,11 C203.164695,11 204.581171,11.231238 205.240845,11.6555095 C205.898494,12.0817917 206.491391,13.1635835 206.985134,14.9632185 L212.853394,36.311514 C212.918148,36.6714409 212.784594,36.8363237 212.424404,36.8363237 L207.383771,36.8363237 C207.151064,36.8363237 207.019534,36.6714409 206.920381,36.311514 L205.141691,29.6981068 L196.871491,29.6981068 L195.024001,36.311514 C194.924848,36.6714409 194.795341,36.8363237 194.597035,36.8363237 L189.556402,36.8363237 C189.192165,36.8363237 189.062658,36.6714409 189.127412,36.311514 L195.024001,14.9632185 C195.519768,13.1635835 196.112665,12.0817917 196.770315,11.6555095 C197.432011,11.231238 198.848488,11 200.989391,11 Z M61.6011531,11.1972561 C61.9309898,11.1972561 62.0948964,11.3621388 62.0948964,11.7220658 L62.0948964,31.5642981 L72.3441162,31.5642981 C72.6739529,31.5642981 72.8378595,31.7271701 72.8378595,32.0549248 L72.8378595,36.3438873 C72.8378595,36.671642 72.6739529,36.834514 72.3441162,36.834514 L56.4937433,36.834514 C56.1639066,36.834514 56,36.671642 56,36.311715 L56,11.7220658 C56,11.3621388 56.1639066,11.1972561 56.4937433,11.1972561 L61.6011531,11.1972561 Z M95.0165936,11.1972561 C95.3788069,11.1972561 95.5427135,11.3621388 95.5427135,11.6898936 L95.5427135,15.978856 C95.5427135,16.3066108 95.3788069,16.4694828 95.0165936,16.4694828 L83.5492039,16.4694828 L83.5492039,21.5768267 L94.0614837,21.5768267 C94.423697,21.5768267 94.5876035,21.7417095 94.5876035,22.0674534 L94.5876035,26.1291994 C94.5876035,26.4569542 94.423697,26.6198261 94.0614837,26.6198261 L83.5492039,26.6198261 L83.5492039,31.5642981 L95.0165936,31.5642981 C95.3788069,31.5642981 95.5427135,31.7271701 95.5427135,32.0549248 L95.5427135,36.3438873 C95.5427135,36.671642 95.3788069,36.834514 95.0165936,36.834514 L77.9480507,36.834514 C77.618214,36.834514 77.4543075,36.671642 77.4543075,36.311715 L77.4543075,11.7220658 C77.4543075,11.3621388 77.618214,11.1972561 77.9480507,11.1972561 L95.0165936,11.1972561 Z M119.238292,11.1972561 C119.600505,11.1972561 119.764411,11.3621388 119.764411,11.6898936 L119.764411,15.978856 C119.764411,16.3066108 119.600505,16.4694828 119.238292,16.4694828 L112.615252,16.4694828 L112.615252,36.311715 C112.615252,36.671642 112.449322,36.834514 112.121509,36.834514 L107.012075,36.834514 C106.684262,36.834514 106.518332,36.671642 106.518332,36.311715 L106.518332,16.4694828 L99.9296922,16.4694828 C99.5998555,16.4694828 99.4339254,16.3066108 99.4339254,15.978856 L99.4339254,11.6898936 C99.4339254,11.3621388 99.5998555,11.1972561 99.9296922,11.1972561 L119.238292,11.1972561 Z M189.08104,11.1972561 C189.443253,11.1972561 189.607159,11.3621388 189.607159,11.6898936 L189.607159,15.978856 C189.607159,16.3066108 189.443253,16.4694828 189.08104,16.4694828 L182.458,16.4694828 L182.458,36.311715 C182.458,36.671642 182.29207,36.834514 181.962233,36.834514 L176.854823,36.834514 C176.52701,36.834514 176.36108,36.671642 176.36108,36.311715 L176.36108,16.4694828 L169.770417,16.4694828 C169.442603,16.4694828 169.276673,16.3066108 169.276673,15.978856 L169.276673,11.6898936 C169.276673,11.3621388 169.442603,11.1972561 169.770417,11.1972561 L189.08104,11.1972561 Z M222.675394,11.1972561 C223.00523,11.1972561 223.169137,11.3621388 223.169137,11.7220658 L223.169137,31.5642981 L233.418357,31.5642981 C233.74617,31.5642981 233.9121,31.7271701 233.9121,32.0549248 L233.9121,36.3438873 C233.9121,36.671642 233.74617,36.834514 233.418357,36.834514 L217.567984,36.834514 C217.236124,36.834514 217.072217,36.671642 217.072217,36.311715 L217.072217,11.7220658 C217.072217,11.3621388 217.236124,11.1972561 217.567984,11.1972561 L222.675394,11.1972561 Z M244.12788,11.1972561 C244.457717,11.1972561 244.621623,11.3621388 244.621623,11.7220658 L244.621623,22.1679917 L252.201797,11.5250108 C252.36368,11.2957836 252.594363,11.1972561 252.893847,11.1972561 L258.527376,11.1972561 C258.988743,11.1972561 259.085873,11.3943111 258.822813,11.8205933 L250.850073,22.9521902 L259.779946,35.951788 C260.206913,36.5409423 260.008606,36.834514 259.219426,36.834514 L253.585897,36.834514 C253.22166,36.834514 252.993,36.705825 252.859446,36.474587 L244.621623,24.3275537 L244.621623,36.311715 C244.621623,36.671642 244.457717,36.834514 244.12788,36.834514 L239.018447,36.834514 C238.690634,36.834514 238.524703,36.671642 238.524703,36.311715 L238.524703,11.7220658 C238.524703,11.3621388 238.690634,11.1972561 239.018447,11.1972561 L244.12788,11.1972561 Z M200.957015,16.0429994 C200.592778,16.0429994 200.560401,16.1415269 200.428871,16.5678092 L198.221191,24.7536348 L203.789968,24.7536348 L201.549911,16.5678092 C201.416358,16.1415269 201.351605,16.0429994 200.957015,16.0429994 Z M130.852016,11.1972561 C131.181853,11.1972561 131.345759,11.3621388 131.345759,11.7220658 L131.345759,15.944673 C131.345759,16.0110283 131.313383,16.2080833 131.278983,16.5680103 L130.028436,21.9367537 C129.961659,22.2986915 129.797753,22.4615634 129.534693,22.4615634 L126.79887,22.4615634 C126.568186,22.4615634 126.402256,22.2986915 126.303103,21.9367537 L125.084933,16.5680103 C125.052556,16.2080833 125.02018,16.0110283 125.02018,15.944673 L125.02018,11.7220658 C125.02018,11.3621388 125.184086,11.1972561 125.511899,11.1972561 L130.852016,11.1972561 Z" id="Logotype" fill="#646972"></path>
            <path d="M34.8970649,0 L35.0547477,0.00540630266 C36.2531506,0.0878567968 37.2,1.10309591 37.2,2.34308897 L37.2,2.34308897 L37.1946875,2.50355682 C37.1136671,3.72312589 36.1160276,4.68669863 34.8970649,4.68669863 L34.8970649,4.68669863 L27.6004291,4.68669863 L27.7729759,4.96572794 C28.5546808,6.28105439 29.0043958,7.77902068 29.0043958,9.37495932 L29.0043958,9.37495932 L28.9983273,9.69690158 C28.9095684,12.0478082 27.8525834,14.1741262 26.1846945,15.7778405 L26.1846945,15.7778405 L26.5130024,15.931213 C32.8270613,18.9570738 37.2,25.4869657 37.2,33.0604647 L37.2,33.0604647 L37.1944826,33.2095163 C37.132257,34.0440366 36.5488974,34.6975029 35.7090529,34.6975029 L35.7090529,34.6975029 L35.5560225,34.691935 C34.7595161,34.6325126 34.2749892,34.096937 33.9817237,33.0604647 L33.9817237,33.0604647 L33.8657953,32.669456 C32.8601596,29.4271964 30.8684536,26.5945004 28.1212885,24.6138893 L28.1212885,24.6138893 L28.0681859,24.5761343 C27.5548138,24.2167498 26.549289,23.6894016 25.4545705,25.3584709 L25.4545705,25.3584709 L25.3126732,25.5746364 C24.8381383,26.2988091 24.355454,27.0469624 24.0833494,27.4521511 L24.0833494,27.4521511 L23.9751197,27.6238617 C23.4266479,28.5533182 23.3411865,29.7026191 23.8607818,31.1281973 L23.8607818,31.1281973 L23.8883767,31.2039093 C24.5762422,33.0912332 30.0092757,48 30.0092757,48 L30.0092757,48 L26.4543339,47.955221 L26.4479828,47.9454582 C26.2080208,47.5765904 19.2469898,36.8761447 18.9995984,36.4954331 L18.9995984,36.4954331 L18.9405477,36.4129035 C18.7011795,36.1102607 18.4261965,36.1373611 18.2009133,36.4954331 L18.2009133,36.4954331 L18.182149,36.5249139 C17.7103383,37.2618421 10.7456661,47.955221 10.7456661,47.955221 L10.7456661,47.955221 L7.19072429,48 L7.19432135,47.9901293 C7.3542342,47.5513134 12.7952744,32.6205995 13.3397299,31.1281973 L13.3397299,31.1281973 L13.4300981,30.8641253 C13.8746144,29.4728613 13.7229254,28.3543475 13.1166506,27.4521511 L13.1166506,27.4521511 L13.0289213,27.3206725 C12.7168958,26.8505603 12.2162403,26.0741781 11.7464528,25.3584709 L11.7464528,25.3584709 L11.6294683,25.187939 C10.5411419,23.6727408 9.55643352,24.2695181 9.07922317,24.6138893 L9.07922317,24.6138893 L8.75314753,24.8556243 C6.06633329,26.9036942 4.14465741,29.7861481 3.21827635,33.0604647 L3.21827635,33.0604647 L3.16102324,33.2489394 C2.84343012,34.2228963 2.327404,34.6975029 1.4909471,34.6975029 L1.4909471,34.6975029 L1.34553165,34.6908156 C0.53715792,34.6155719 0,33.9146508 0,33.0604647 L0,33.0604647 L0.00388730323,32.6696753 C0.153955397,25.1328942 4.63503425,18.6821412 11.0153055,15.7778405 L11.0153055,15.7778405 L10.7916862,15.5559409 C9.18007232,13.9053329 8.19560421,11.7456673 8.19560421,9.37495932 L8.19560421,9.37495932 L8.20245107,9.0345029 C8.26615274,7.45299228 8.77151707,5.9755017 9.59957087,4.68669863 L9.59957087,4.68669863 L2.30293511,4.68669863 L2.14525226,4.68129229 C0.94684944,4.59884093 0,3.58358102 0,2.34308897 L0,2.34308897 L0.00531251051,2.18268354 C0.0863328852,0.963572741 1.08397244,0 2.30293511,0 L2.30293511,0 L34.8970649,0 Z M23.5087668,33.7029918 C22.3514153,33.8758597 21.1741094,33.9883279 19.9809424,34.0367518 C19.6346196,34.0513961 19.2770544,34.5506754 19.5448423,35.0913992 L19.6069265,35.1999653 C19.9681067,35.7552887 21.1555285,37.5806775 21.2580998,37.7383573 L21.2651831,37.7492461 C21.9271298,37.7016033 22.5838961,37.6366802 23.2352661,37.5546965 L23.8848293,37.467034 C24.5266426,37.374699 24.7102726,37.1041086 24.6004512,36.7081802 L24.5724865,36.6214393 C24.4183242,36.1971025 23.5858479,33.9143541 23.5137501,33.7166563 L23.5087668,33.7029918 Z M13.6912332,33.7029918 C13.6912332,33.7029918 12.7886832,36.1778144 12.6275135,36.6214393 C12.476611,37.0350031 12.6073932,37.3270087 13.1845922,37.4445388 L13.3151707,37.467034 C13.9629192,37.5603671 14.6164237,37.6367127 15.2748209,37.6958513 L15.9348169,37.7492461 C15.9348169,37.7492461 17.1065353,35.9480017 17.5388798,35.2832876 L17.5930735,35.1999653 C17.9480304,34.6556852 17.6333959,34.1233037 17.2882947,34.0460111 L17.2190576,34.0367518 C16.264524,33.9980127 15.320469,33.9182852 14.3882023,33.7994354 L13.6912332,33.7029918 Z M23.5768162,26.0103703 C21.9656314,26.3279891 20.3022584,26.4998156 18.6005116,26.4998156 C17.1105878,26.4998156 15.6512191,26.3682609 14.2299463,26.1225925 L13.6231838,26.0103703 C13.7787253,26.2486365 13.9198587,26.4642423 14.0342718,26.6369269 L14.1148791,26.7580761 C14.519196,27.360221 14.7670619,28.0162602 14.8545238,28.7214396 L14.8797953,28.9881761 C14.9206542,29.614785 14.9606308,29.9994049 15.4163445,30.099513 L15.5290788,30.117545 C16.3370759,30.2041872 17.1532594,30.2598382 17.9789392,30.2786329 L18.6005116,30.2857267 C19.4306121,30.2857267 20.2515437,30.2474042 21.0635685,30.1766241 L21.6709212,30.117545 C22.1930597,30.0614596 22.2674134,29.7175914 22.3106017,29.1284631 L22.3202047,28.9881761 C22.3675038,28.2707859 22.575701,27.6019416 22.9408434,26.9863974 L23.0851209,26.7580761 C23.1858136,26.6081184 23.3159772,26.4101742 23.4632996,26.1845045 L23.5768162,26.0103703 Z M5.00188705,22.8263728 C4.62326631,22.8263728 4.29325228,23.0023648 4.09729046,23.305925 C3.70843672,23.9078385 3.35331092,24.5320791 3.0368904,25.1770471 L2.80691002,25.6646345 C3.15687839,25.8881826 3.51162215,26.1040939 3.87098971,26.3125227 L4.41348995,26.6195735 C4.77117957,26.816961 5.11576081,26.6619169 5.35305324,26.4274985 L5.42092812,26.3550648 C6.0097516,25.6751351 6.64796349,25.0320873 7.34148565,24.4424943 L7.76428355,24.0952856 C7.2485407,23.854338 6.73999292,23.5999176 6.24338896,23.3260934 L5.75094215,23.0455818 C5.54669161,22.9256156 5.34178615,22.8573015 5.14644241,22.8347746 L5.00188705,22.8263728 Z M32.1986246,22.8263728 C31.9612192,22.8263728 31.704371,22.8956241 31.4495695,23.0455818 C30.961072,23.3330007 30.4596233,23.5990389 29.9495406,23.8496274 L29.4367397,24.0952856 C30.1517701,24.6628338 30.8110165,25.2871513 31.4198085,25.9516654 L31.7790719,26.3550648 C31.9944299,26.6026275 32.3260719,26.7981216 32.6798175,26.6684898 L32.7865101,26.6195735 C33.1511457,26.4185885 33.5105512,26.2101982 33.8650296,25.9942483 L34.39309,25.6646345 C34.0963332,25.0094027 33.7599542,24.3744985 33.3884065,23.7615214 L33.1032212,23.305925 C32.9313069,23.0403098 32.6575424,22.872364 32.3381411,22.8345278 L32.1986246,22.8263728 Z M26.2573488,17.5539019 C25.7129535,17.5539019 25.2181883,17.6918838 24.9531538,17.7897729 C23.1239669,18.4679469 21.1605038,18.8639521 19.1138726,18.9208631 L18.6005116,18.9279934 C16.5399017,18.9279934 14.5582008,18.5841555 12.7069196,17.9534049 L12.2468462,17.7897729 C11.8086333,17.6275637 10.735904,17.3541979 9.85662229,17.7836124 L9.69422606,17.872562 C9.02089511,18.283696 8.37670773,18.7324861 7.76952285,19.2226644 L7.32119495,19.5981169 C10.493636,21.4927863 14.1641716,22.617554 18.0869262,22.7079953 L18.6005116,22.7139045 C22.5442433,22.7139045 26.2473858,21.6680814 29.462713,19.8408597 L29.8793167,19.5981169 C29.2907149,19.087011 28.6634734,18.6182266 28.005189,18.1880313 L27.5057739,17.872562 C27.1702779,17.6681554 26.7971914,17.5800425 26.436456,17.5590389 L26.2573488,17.5539019 Z M18.6005116,4.68669863 C14.5124309,4.68669863 11.1984761,5.15375437 11.1984761,8.51166121 C11.1984761,11.7970794 14.369912,14.0325923 18.3350213,14.1282358 L18.6005116,14.1314299 C22.5992206,14.1314299 25.857585,11.9673392 25.9973633,8.72912171 L26.0020356,8.51166121 C26.0020356,5.22371076 22.8247239,4.707414 18.8549544,4.68732869 L18.6005116,4.68669863 Z M19.1484884,8.60330202 L19.1484884,10.8360055 L18.0515116,10.8360055 L18.0515116,8.60330202 L19.1484884,8.60330202 Z M23.0001871,7.4869503 C23.5651165,7.4869503 24.0302083,7.92238301 24.0897098,8.48167214 L24.0961406,8.60330202 C24.0961406,9.17869525 23.6687108,9.65248751 23.1196038,9.71310251 L23.0001871,9.71965374 C22.3933706,9.71965374 21.9026985,9.21979476 21.9026985,8.60330202 C21.9026985,8.02790879 22.3301284,7.55411653 22.8804833,7.49350153 L23.0001871,7.4869503 Z M14.2003246,7.4869503 C14.7662091,7.4869503 15.2313646,7.92238301 15.2908703,8.48167214 L15.2973015,8.60330202 C15.2973015,9.17869525 14.8698716,9.65248751 14.3199327,9.71310251 L14.2003246,9.71965374 C13.5945314,9.71965374 13.1038594,9.21979476 13.1038594,8.60330202 C13.1038594,8.02790879 13.5312892,7.55411653 14.0808122,7.49350153 L14.2003246,7.4869503 Z M6.70823866,1.23090274 L3.77341622,1.23090274 C3.80624708,1.64918751 3.86572635,2.11809458 3.92698218,2.49750866 L3.9637499,2.71329703 C4.02987078,3.0886719 4.29479025,3.40415242 4.81444559,3.45046674 L4.94969879,3.45631658 L7.97047836,3.45631658 C7.85574093,3.09001367 7.75827167,2.71580283 7.6797974,2.33456273 L7.60771876,1.95101208 C7.56999312,1.72940794 7.49928541,1.29416961 6.85522446,1.23712274 L6.70823866,1.23090274 Z M33.4270954,1.23090274 L30.492273,1.23090274 C29.7630699,1.23090274 29.6467094,1.65136745 29.6011564,1.90047125 L29.5922812,1.95101208 C29.5266622,2.33684074 29.4414725,2.71593301 29.3386549,3.08741024 L29.2300333,3.45631658 L32.2508129,3.45631658 C32.8128403,3.45631658 33.1159065,3.16971104 33.216351,2.80577184 L33.2372734,2.71329703 C33.2973922,2.37528475 33.3614195,1.91975643 33.4041873,1.48682736 L33.4270954,1.23090274 Z" id="Isotype" fill="url(#linearGradient-1)"></path>
        </g>
    </g>
</svg>