<?xml version="1.0" encoding="UTF-8"?>
<svg width="164px" height="44px" viewBox="0 0 164 44" version="1.1" xmlns="http://www.w3.org/2000/svg" xmlns:xlink="http://www.w3.org/1999/xlink">
    <!-- Generator: Sketch 60.1 (88133) - https://sketch.com -->
    <title>logo-prey-project</title>
    <desc>Created with Sketch.</desc>
    <g id="Paginas" stroke="none" stroke-width="1" fill="none" fill-rule="evenodd">
        <g id="logo-prey-project" fill="#1F2938" fill-rule="nonzero">
            <polygon id="Shape" points="25.0900348 0.0122189897 14.5929961 6.16011637 19.934501 9.29166887 25.0900348 6.28579741 30.2352369 9.29166887 35.5870736 6.16011637"></polygon>
            <polygon id="Shape" points="38.5006217 23.7973552 38.49029 29.8405184 25.0900348 37.6746363 11.6897797 29.830045 11.6794479 23.7973552 6.32761127 20.6553293 6.32761127 32.9615975 25.0900348 43.9377413 43.8524584 32.9615975 43.8524584 20.6553293"></polygon>
            <polygon id="Shape" points="27.1873762 13.5229304 25.1003666 12.3080138 23.0133569 13.5229304 0.0459188046 0.0331658291 0.0459188046 9.43829675 3.9719766 11.7424491 3.9719766 16.8325311 18.8806645 25.6092568 15.7088231 27.4735255 25.0900348 32.951124 34.4712466 27.4735255 31.2580783 25.58831 46.1254392 16.8430045 46.1254392 11.7424491 50.1548143 9.44877017 50.1548143 0.0226924094"></polygon>
            <g id="text3229" transform="translate(58.393597, 8.000000)">
                <path d="M23.919601,17.256338 L3.11503576,17.256338 L3.11503576,23.915493 L0.145260735,23.915493 L0.145260735,0.371830986 L24.1294221,0.371830986 L24.1294221,17.0366197 M20.949826,13.7070423 L20.949826,3.70140845 L3.11503576,3.70140845 L3.11503576,13.7070423 L20.949826,13.7070423" id="path4121"></path>
                <polyline id="path4123" points="50.8735374 3.70140845 30.0689721 3.70140845 30.0689721 17.256338 26.889376 17.256338 26.889376 0.371830986 50.8735374 0.371830986 50.8735374 3.70140845"></polyline>
                <path d="M77.8113337,17.0366197 L53.8433124,17.0366197 L53.8433124,0.152112676 L77.8274737,0.152112676 L77.8274737,10.3774648 L56.8130874,10.3774648 L56.8130874,13.7070423 L77.8274737,13.7070423 L77.8113337,17.0366197 M74.8576987,7.03098592 L74.8576987,3.70140845 L56.8130874,3.70140845 L56.8130874,7.03098592 L74.8576987,7.03098592" id="path4125"></path>
                <polyline id="path4127" points="104.76527 23.915493 80.7811087 23.915493 80.7811087 20.3661972 101.795495 20.3661972 101.795495 17.0197183 80.7811087 17.0197183 80.7811087 0.135211268 83.7508837 0.135211268 83.7508837 13.6901408 101.795495 13.6901408 101.795495 0.135211268 104.76527 0.135211268 104.76527 23.915493"></polyline>
            </g>
        </g>
    </g>
</svg>