<?xml version="1.0" encoding="UTF-8"?>
<svg width="164px" height="44px" viewBox="0 0 164 44" version="1.1" xmlns="http://www.w3.org/2000/svg" xmlns:xlink="http://www.w3.org/1999/xlink">
    <!-- Generator: Sketch 60.1 (88133) - https://sketch.com -->
    <title>logo-prey</title>
    <desc>Created with Sketch.</desc>
    <g id="Page-1" stroke="none" stroke-width="1" fill="none" fill-rule="evenodd">
        <g id="logo-prey" fill="#FFFFFF" fill-rule="nonzero">
            <path d="M82.5230194,8.37183099 L82.5230194,25.0366197 L82.3131983,25.256338 L61.5086331,25.256338 L61.5086331,31.915493 L58.538858,31.915493 L58.538858,8.37183099 L82.5230194,8.37183099 Z M142.144481,8.13521127 L142.144481,21.6901408 L160.189092,21.6901408 L160.189092,8.13521127 L163.158867,8.13521127 L163.158867,31.915493 L139.174706,31.915493 L139.174706,28.3661972 L160.189092,28.3661972 L160.189092,25.0197183 L139.174706,25.0197183 L139.174706,8.13521127 L142.144481,8.13521127 Z M109.267135,8.37183099 L109.267135,11.7014085 L88.4625694,11.7014085 L88.4625694,25.256338 L85.2829733,25.256338 L85.2829733,8.37183099 L109.267135,8.37183099 Z M136.221071,8.15211268 L136.221071,18.3774648 L115.206685,18.3774648 L115.206685,21.7070423 L136.221071,21.7070423 L136.204931,25.0366197 L112.23691,25.0366197 L112.23691,8.15211268 L136.221071,8.15211268 Z M79.3434233,11.7014085 L61.5086331,11.7014085 L61.5086331,21.7070423 L79.3434233,21.7070423 L79.3434233,11.7014085 Z M133.251296,11.7014085 L115.206685,11.7014085 L115.206685,15.0309859 L133.251296,15.0309859 L133.251296,11.7014085 Z" id="Logotype"></path>
            <path d="M43.8524584,20.6553293 L43.8524584,32.9615975 L25.0900348,43.9377413 L6.32761127,32.9615975 L6.32761127,20.6553293 L11.6794479,23.7973552 L11.6897797,29.830045 L25.0900348,37.6746363 L38.49029,29.8405184 L38.5006217,23.7973552 L43.8524584,20.6553293 Z M50.1548143,0.0226924094 L50.1548143,9.44877017 L46.1254392,11.7424491 L46.1254392,16.8430045 L31.2580783,25.58831 L34.4712466,27.4735255 L25.0900348,32.951124 L15.7088231,27.4735255 L18.8806645,25.6092568 L3.9719766,16.8325311 L3.9719766,11.7424491 L0.0459188046,9.43829675 L0.0459188046,0.0331658291 L23.0133569,13.5229304 L25.1003666,12.3080138 L27.1873762,13.5229304 L50.1548143,0.0226924094 Z M25.0900348,0.0122189897 L35.5870736,6.16011637 L30.2352369,9.29166887 L25.0900348,6.28579741 L19.934501,9.29166887 L14.5929961,6.16011637 L25.0900348,0.0122189897 Z" id="Isotype"></path>
        </g>
    </g>
</svg>