<?xml version="1.0" encoding="UTF-8"?>
<svg width="201px" height="40px" viewBox="0 0 201 40" version="1.1" xmlns="http://www.w3.org/2000/svg" xmlns:xlink="http://www.w3.org/1999/xlink">
    <!-- Generator: Sketch 60.1 (88133) - https://sketch.com -->
    <title>logo-sosafe</title>
    <desc>Created with Sketch.</desc>
    <g id="Page-1" stroke="none" stroke-width="1" fill="none" fill-rule="evenodd">
        <path d="M41.0914512,6.18557401 C35.2411845,2.33676973 28.1372341,0 20.615389,0 C12.954303,0 5.85030962,2.33676973 0,6.18557401 L0,7.28523238 C0,21.5807997 8.3575913,34.0893406 20.615389,40 C32.8731438,34.0893406 41.230778,21.5807997 41.230778,7.28523238 C41.230778,7.16165961 41.2026034,7.01031778 41.1716801,6.84368621 C41.1337131,6.63959949 41.0914512,6.41258245 41.0914512,6.18557401 Z M86.0828511,6.46044563 C77.5862336,6.46044563 71.4573133,12.5085409 71.4573133,20.7559786 C71.4573133,29.0034163 77.5862336,35.051503 86.0828511,35.051503 C94.5798981,35.051503 100.708733,29.0034163 100.708733,20.7559786 C100.708733,12.3711136 94.5798981,6.46044563 86.0828511,6.46044563 Z M49.3097586,26.2542704 L46.1060146,30.6528867 C48.7525372,33.2646054 52.5135027,35.051503 57.8066338,35.051503 C65.3284789,35.051503 68.9501175,31.3401947 68.9501175,26.2542704 C68.9501175,20.0935089 63.1464936,18.7052276 58.5583287,17.6077007 L58.5030962,17.5944651 L58.4397033,17.5802841 C55.4041479,16.899508 52.9313973,16.3450721 52.9313973,14.5704648 C52.9313973,12.9209084 54.4635629,11.8213188 56.9708446,11.8213188 C59.7566941,11.8213188 62.8211972,12.7834812 65.0499111,14.8453192 L68.3928961,10.5841301 C65.6070466,8.10994177 61.985408,6.73536881 57.5280661,6.73536881 C50.9812511,6.73536881 46.9418038,10.5841301 46.9418038,15.1202596 C46.9418038,21.1523603 52.5054283,22.4785028 57.0444594,23.5604736 L57.3887392,23.6426377 L57.5758254,23.6844932 C60.5600997,24.3529791 63.099765,24.9217679 63.099765,26.9415784 C63.099765,28.4536215 61.4282725,29.9656647 58.2245284,29.9656647 C54.324322,29.9656647 51.2598189,28.3161084 49.3097586,26.2542704 Z M94.4407431,20.7559786 C94.4407431,15.5325412 91.0975863,11.6838057 85.9436961,11.6838057 C80.7899777,11.6838057 77.4469927,15.5325412 77.4469927,20.7559786 C77.4469927,25.8419028 80.7899777,29.8281515 85.9436961,29.8281515 C91.0975863,29.8281515 94.4407431,25.8419028 94.4407431,20.7559786 Z M105.445158,26.2542704 L102.241156,30.6528867 C104.887679,33.2646054 108.6483,35.051503 114.08136,34.9140758 C121.602603,34.9140758 125.224929,31.2027675 125.224929,26.1168432 C125.224929,19.9559958 119.42079,18.5678004 114.832969,17.4702735 L114.777135,17.4570379 L114.714429,17.4427709 C111.678788,16.7620807 109.20578,16.2075589 109.20578,14.4329516 C109.20578,12.7834812 110.738203,11.6838057 113.24557,11.6838057 C116.031248,11.6838057 119.095236,12.646054 121.324293,14.707892 L124.528295,10.5841301 C121.741758,8.10994177 118.120292,6.73536881 113.663036,6.73536881 C107.116736,6.73536881 103.076945,10.5841301 103.076945,15.1202596 C103.076945,21.1523603 108.64057,22.4785028 113.179429,23.5604736 L113.523881,23.6426377 L113.711139,23.6844932 C116.695241,24.3529791 119.23525,24.9217679 119.23525,26.9415784 C119.23525,28.4536215 117.563671,29.9656647 114.35967,29.9656647 C110.459034,29.9656647 107.395046,28.3161084 105.445158,26.2542704 Z M147.929534,34.5017082 L146.257955,29.8281515 L134.278596,29.8281515 L132.467863,34.5017082 L125.642394,34.5017082 L136.507654,6.87278743 L144.028898,6.87278743 L154.755002,34.5017082 L147.929534,34.5017082 Z M135.81102,24.6048001 L140.129121,12.7834812 L144.586377,24.6048001 L135.81102,24.6048001 Z M157.26237,34.5017082 L157.26237,7.01030919 L177.041282,7.01030919 L177.041282,12.2336864 L163.25119,12.2336864 L163.25119,18.0069186 L176.762972,18.0069186 L176.762972,23.2302701 L163.25119,23.2302701 L163.25119,34.6392213 L157.26237,34.6392213 L157.26237,34.5017082 Z M181.220228,7.01030919 L181.220228,34.5017082 L181.220228,34.6392213 L201,34.6392213 L201,29.4157839 L187.209908,29.4157839 L187.209908,23.2302701 L200.72169,23.2302701 L200.72169,18.0069186 L187.209908,18.0069186 L187.209908,12.2336864 L201,12.2336864 L201,7.01030919 L181.220228,7.01030919 Z M13.093544,18.1443458 C13.093544,22.2680217 16.4366148,25.5670484 20.615389,25.5670484 C24.6549223,25.5670484 27.9979072,22.1305945 27.9979072,18.1443458 C27.9979072,14.1580972 24.7941632,10.7216433 20.615389,10.7216433 C16.4366148,10.7216433 13.093544,14.0206699 13.093544,18.1443458 Z" id="logo-sosafe" fill="#F54286"></path>
    </g>
</svg>