<?xml version="1.0" encoding="UTF-8"?>
<svg width="256px" height="44px" viewBox="0 0 256 44" version="1.1" xmlns="http://www.w3.org/2000/svg" xmlns:xlink="http://www.w3.org/1999/xlink">
    <!-- Generator: Sketch 60.1 (88133) - https://sketch.com -->
    <title>logo-timebilling-x</title>
    <desc>Created with Sketch.</desc>
    <g id="Page-1" stroke="none" stroke-width="1" fill="none" fill-rule="evenodd">
        <g id="logo-timebilling-x">
            <path d="M216.708511,16.5218596 C218.239597,16.5218596 219.564994,16.9053308 220.684744,17.6722848 C221.804493,18.4392387 222.764264,19.406502 223.564085,20.5741035 L223.564085,16.830929 L225.655035,16.830929 L225.655035,34.7912985 C225.655035,36.0275825 225.420805,37.1207616 224.952339,38.0708688 C224.483872,39.0209759 223.855451,39.8165356 223.067056,40.4575718 C222.278661,41.0986079 221.353168,41.5793778 220.290548,41.8998959 C219.227929,42.220414 218.102483,42.3806706 216.914178,42.3806706 C214.857495,42.3806706 213.200748,42.0143697 211.943886,41.281757 C210.687025,40.5491443 209.670125,39.5647107 208.893156,38.3284267 L210.332826,37.195172 C211.041239,38.3398794 211.978158,39.1812267 213.143612,39.7192392 C214.309065,40.2572517 215.565908,40.5262539 216.914178,40.5262539 C217.782555,40.5262539 218.605216,40.4060614 219.382185,40.1656729 C220.159154,39.9252843 220.838991,39.5704303 221.421718,39.1011003 C222.004445,38.6317703 222.467191,38.0365313 222.809972,37.3153657 C223.152752,36.5942 223.32414,35.7528527 223.32414,34.7912985 L223.32414,31.2541703 C222.638579,32.3988777 221.70166,33.3031829 220.513354,33.9671132 C219.325049,34.6310435 218.079632,34.9630037 216.777066,34.9630037 C215.543057,34.9630037 214.417611,34.7054484 213.400696,34.1903301 C212.383781,33.6752117 211.503991,32.994121 210.7613,32.1470376 C210.018609,31.2999541 209.441604,30.3269674 209.030267,29.2280483 C208.618931,28.1291292 208.413266,26.9958858 208.413266,25.8282843 C208.413266,24.5920003 208.613218,23.4072459 209.013128,22.2739855 C209.413039,21.1407252 209.978618,20.1505682 210.709883,19.3034847 C211.441148,18.4564012 212.315225,17.781034 213.33214,17.2773627 C214.349055,16.7736914 215.474501,16.5218596 216.708511,16.5218596 Z M119.934464,16.4188364 C121.396994,16.4188364 122.705253,16.6706683 123.85928,17.1743395 C125.013308,17.6780108 125.99593,18.353378 126.807177,19.2004615 C127.618424,20.047545 128.23542,21.0319786 128.658182,22.1537919 C129.080945,23.2756051 129.292323,24.4431892 129.292323,25.656579 C129.292323,25.9542029 129.28661,26.2403755 129.275184,26.5151053 C129.263758,26.7898351 129.235193,27.0187731 129.189489,27.2019263 L115.306951,27.2019263 C115.375507,27.9116449 115.546895,28.5412245 115.821119,29.0906841 C116.095343,29.6401436 116.449545,30.1094666 116.883733,30.4986671 C117.317922,30.8878677 117.809233,31.1854871 118.357682,31.3915345 C118.90613,31.5975818 119.477422,31.7006039 120.071575,31.7006039 C120.985656,31.7006039 121.848308,31.4773893 122.659555,31.0309534 C123.470802,30.5845175 124.024955,29.9950021 124.322031,29.2623893 L128.263987,30.3613029 C127.601278,31.7349518 126.544387,32.8624717 125.093284,33.7438964 C123.64218,34.6253211 121.911164,35.0660269 119.900186,35.0660269 C118.460508,35.0660269 117.157962,34.8199185 115.992508,34.3276943 C114.827055,33.8354701 113.833007,33.1658263 113.010334,32.3187428 C112.187661,31.4716593 111.553526,30.4872257 111.107912,29.3654125 C110.662297,28.2435992 110.439493,27.0645683 110.439493,25.8282843 C110.439493,24.546212 110.656584,23.3385638 111.090773,22.2053034 C111.524961,21.0720431 112.153383,20.0761626 112.976056,19.2176321 C113.798729,18.3591015 114.79849,17.6780108 115.97537,17.1743395 C117.152249,16.6706683 118.471934,16.4188364 119.934464,16.4188364 Z M175.266563,9.65364948 L175.266563,30.6703724 C175.266563,31.3343027 175.449377,31.8551367 175.815009,32.2328902 C176.180642,32.6106436 176.694805,32.7995175 177.357513,32.7995175 C177.608886,32.7995175 177.905958,32.7651768 178.248738,32.6964944 C178.591519,32.6278119 178.911442,32.5362367 179.208519,32.421766 L179.619853,34.3105237 C179.185664,34.4936769 178.654363,34.6424867 178.025932,34.7569574 C177.397501,34.8714281 176.854774,34.9286627 176.397733,34.9286627 C175.323688,34.9286627 174.478175,34.6253197 173.861171,34.0186248 C173.244166,33.4119299 172.935668,32.5591357 172.935668,31.4602166 L172.935668,9.65364948 L175.266563,9.65364948 Z M165.942982,9.65364948 L165.942982,30.6703724 C165.942982,31.3343027 166.125796,31.8551367 166.491428,32.2328902 C166.85706,32.6106436 167.371223,32.7995175 168.033932,32.7995175 C168.285305,32.7995175 168.582376,32.7651768 168.925157,32.6964944 C169.267937,32.6278119 169.587861,32.5362367 169.884937,32.421766 L170.296272,34.3105237 C169.862083,34.4936769 169.330782,34.6424867 168.702351,34.7569574 C168.07392,34.8714281 167.531192,34.9286627 167.074152,34.9286627 C166.000106,34.9286627 165.154594,34.6253197 164.537589,34.0186248 C163.920585,33.4119299 163.612087,32.5591357 163.612087,31.4602166 L163.612087,9.65364948 L165.942982,9.65364948 Z M184.487311,16.830929 L184.487311,34.7226164 L182.156416,34.7226164 L182.156416,16.830929 L184.487311,16.830929 Z M158.367572,16.830929 L158.367572,34.7226164 L156.036677,34.7226164 L156.036677,16.830929 L158.367572,16.830929 Z M102.178526,16.4188364 C103.275423,16.4188364 104.178065,16.6248807 104.886478,17.0369753 C105.594891,17.44907 106.143331,17.9870744 106.531816,18.6510047 C106.9203,19.314935 107.188808,20.0704306 107.337346,20.9175141 C107.485884,21.7645975 107.560152,22.6231152 107.560152,23.4930928 L107.560152,34.7226164 L102.966917,34.7226164 L102.966917,24.6263475 C102.966917,23.1840162 102.721261,22.1309012 102.229943,21.4669709 C101.738624,20.8030406 101.058787,20.4710804 100.190409,20.4710804 C99.2763283,20.4710804 98.4193901,20.8202109 97.6195691,21.5184824 C96.819748,22.216754 96.2484559,23.1267827 95.9056755,24.248596 L95.9056755,34.7226164 L91.3124406,34.7226164 L91.3124406,24.6263475 C91.3124406,23.1840162 91.066785,22.1309012 90.5754664,21.4669709 C90.0841477,20.8030406 89.4043101,20.4710804 88.535933,20.4710804 C87.6447038,20.4710804 86.7934785,20.8144875 85.9822315,21.5013119 C85.1709845,22.1881364 84.5939794,23.0924416 84.251199,24.2142549 L84.251199,34.7226164 L79.6579641,34.7226164 L79.6579641,16.7279059 L83.8055866,16.7279059 L83.8055866,20.0589878 C84.4682955,18.8913862 85.37665,17.9928044 86.5306774,17.3632153 C87.6847049,16.7336262 89.0043898,16.4188364 90.4897717,16.4188364 C91.9980056,16.4188364 93.1634416,16.7851373 93.9861146,17.5177501 C94.8087877,18.2503628 95.3343764,19.1546681 95.5628967,20.230693 C96.2941617,18.994409 97.219655,18.0500396 98.3394044,17.3975564 C99.4591538,16.7450732 100.738848,16.4188364 102.178526,16.4188364 Z M145.410537,10.3404705 C146.256062,10.3404705 147.021593,10.5236209 147.707154,10.8899273 C148.392715,11.2562337 148.975433,11.7312801 149.455326,12.3150809 C149.935218,12.8988817 150.306558,13.562802 150.569356,14.3068618 C150.832155,15.0509216 150.963552,15.8006937 150.963552,16.5562006 C150.963552,17.7924846 150.655054,18.9200045 150.038049,19.9387941 C149.421045,20.9575837 148.564106,21.7188027 147.467209,22.222474 C148.861183,22.6345686 149.963777,23.4015111 150.775024,24.5233244 C151.586271,25.6451376 151.991888,26.9500845 151.991888,28.4382041 C151.991888,29.35397 151.809075,30.1953174 151.443442,30.9622713 C151.07781,31.7292253 150.586498,32.3931456 149.969494,32.9540523 C149.352489,33.5149589 148.632661,33.9499412 147.809988,34.2590122 C146.987315,34.5680832 146.107525,34.7226164 145.170592,34.7226164 L133.687504,34.7226164 L133.687504,10.3404705 L145.410537,10.3404705 Z M199.329629,16.5218596 C200.312267,16.5218596 201.146353,16.70501 201.831914,17.0713164 C202.517475,17.4376228 203.065915,17.9527334 203.477252,18.6166637 C203.888588,19.280594 204.18566,20.093324 204.368477,21.0548783 C204.551293,22.0164325 204.6427,23.0809944 204.6427,24.248596 L204.6427,34.7226164 L202.311804,34.7226164 L202.311804,24.7293707 C202.311804,22.6002149 201.997594,21.0548831 201.369163,20.0933288 C200.740732,19.1317746 199.775248,18.6510047 198.472683,18.6510047 C197.787122,18.6510047 197.101571,18.7769206 196.41601,19.0287563 C195.730449,19.2805919 195.096315,19.6354459 194.513588,20.0933288 C193.930862,20.5512118 193.410986,21.0949397 192.953945,21.7245287 C192.496905,22.3541178 192.165555,23.0352085 191.959887,23.7678212 L191.959887,34.7226164 L189.628992,34.7226164 L189.628992,16.830929 L191.75422,16.830929 L191.75422,20.883173 C192.485485,19.5782066 193.530949,18.5250915 194.890645,17.7237964 C196.250341,16.9225012 197.729987,16.5218596 199.329629,16.5218596 Z M68.3462663,10.3404705 L68.3462663,14.4957376 L60.5651894,14.4957376 L60.5651894,34.7226164 L55.8691209,34.7226164 L55.8691209,14.4957376 L48.0880439,14.4957376 L48.0880439,10.3404705 L68.3462663,10.3404705 Z M75.5103416,16.7279059 L75.5103416,34.7226164 L70.9171067,34.7226164 L70.9171067,16.7279059 L75.5103416,16.7279059 Z M237.532948,10.717799 L244.371595,19.7906194 L252.090464,10.717799 L254.189454,10.717799 L245.336454,21.0964272 L255.374368,34.3410491 L250.65164,34.3410491 L242.848134,23.996338 L234.028988,34.3410491 L231.946925,34.3410491 L241.883276,22.6905302 L232.827147,10.717799 L237.532948,10.717799 Z M217.154123,18.5823226 C216.148634,18.5823226 215.251705,18.7940903 214.46331,19.2176321 C213.674915,19.6411738 213.006503,20.1963486 212.458054,20.883173 C211.909606,21.5699974 211.492562,22.3483868 211.206912,23.2183644 C210.921262,24.0883421 210.778439,24.9697535 210.778439,25.8626253 C210.778439,26.8241795 210.949826,27.7399317 211.292607,28.6099094 C211.635387,29.479887 212.10956,30.241106 212.715138,30.8935892 C213.320717,31.5460724 214.023407,32.0611831 214.823228,32.4389365 C215.623049,32.8166899 216.491413,33.0055638 217.428346,33.0055638 C218.113907,33.0055638 218.788031,32.8796479 219.45074,32.6278123 C220.113449,32.3759766 220.713306,32.038293 221.250329,31.6147513 C221.787351,31.1912095 222.238672,30.7161631 222.604305,30.1895977 C222.969937,29.6630323 223.20988,29.1250279 223.32414,28.5755683 L223.32414,23.0466592 C223.072768,22.405623 222.729992,21.8103841 222.295804,21.2609246 C221.861615,20.711465 221.370304,20.242142 220.821855,19.8529415 C220.273407,19.463741 219.684976,19.1546746 219.056545,18.9257331 C218.428114,18.6967916 217.79398,18.5823226 217.154123,18.5823226 Z M145.410537,23.3900697 L136.086956,23.3900697 L136.086956,32.6278123 L145.170592,32.6278123 C145.787596,32.6278123 146.364601,32.5018963 146.901624,32.2500607 C147.438647,31.9982251 147.907106,31.6605415 148.307017,31.2369997 C148.706927,30.813458 149.021138,30.3212412 149.249658,29.7603346 C149.478179,29.1994279 149.592437,28.6213594 149.592437,28.0261115 C149.592437,27.4308637 149.489605,26.8527951 149.283936,26.2918885 C149.078268,25.7309818 148.786909,25.238765 148.409851,24.8152233 C148.032792,24.3916815 147.587184,24.0482745 147.073013,23.7849918 C146.558843,23.5217091 146.004689,23.3900697 145.410537,23.3900697 Z M119.865908,19.7499183 C119.248903,19.7499183 118.671898,19.8586639 118.134875,20.0761583 C117.597853,20.2936527 117.12368,20.5969956 116.712344,20.9861962 C116.301007,21.3753967 115.963945,21.8447197 115.701147,22.3941792 C115.438348,22.9436388 115.284099,23.5503246 115.238395,24.2142549 L124.561976,24.2142549 C124.447716,22.8635002 123.950692,21.7817679 123.070889,20.9690256 C122.191086,20.1562834 121.12277,19.7499183 119.865908,19.7499183 Z M144.656424,12.4352746 L136.086956,12.4352746 L136.086956,21.4326298 L144.450756,21.4326298 C145.044909,21.4326298 145.599062,21.3067139 146.113233,21.0548783 C146.627404,20.8030426 147.067299,20.4710825 147.432931,20.0589878 C147.798564,19.6468931 148.08421,19.1718467 148.289878,18.6338342 C148.495546,18.0958217 148.598379,17.5292 148.598379,16.9339522 C148.598379,16.3158102 148.501259,15.7320182 148.307017,15.1825586 C148.112775,14.6330991 147.838554,14.1580526 147.484348,13.757405 C147.130142,13.3567574 146.713098,13.0362442 146.233206,12.7958556 C145.753313,12.5554671 145.227724,12.4352746 144.656424,12.4352746 Z M75.5103416,9.65364948 L75.5103416,14.2210092 L70.9171067,14.2210092 L70.9171067,9.65364948 L75.5103416,9.65364948 Z M158.367572,9.65364948 L158.367572,13.0877545 L156.036677,13.0877545 L156.036677,9.65364948 L158.367572,9.65364948 Z M184.487311,9.65364948 L184.487311,13.0877545 L182.156416,13.0877545 L182.156416,9.65364948 L184.487311,9.65364948 Z" id="Logotype" fill="#1B365D"></path>
            <path d="M18.9337358,4.10006101 C29.9322202,4.10006101 38.8482534,12.9505638 38.8482534,23.8682123 C38.8482534,34.7858608 29.9322202,43.6363636 18.9337358,43.6363636 C11.2767689,43.6363636 4.62910752,39.3467734 1.29654419,33.0564384 C0.789985928,32.0430272 1.19588014,30.8067639 2.2122169,30.290554 C3.22855365,29.7743442 4.4704669,30.1736658 4.98610778,31.1824639 C7.64996262,36.0929764 12.8736548,39.4386815 18.8845642,39.4386815 C27.5747247,39.4386815 34.6194917,32.4456917 34.6194917,23.8194015 C34.6194917,15.1931113 27.5747247,8.20012143 18.8845642,8.20012143 C13.8312742,8.20012143 9.33435277,10.5647109 6.45545314,14.2400396 L7.87093976,14.2400396 C8.73839192,14.2400396 9.44160084,14.942526 9.44160084,15.803435 L9.44160084,16.0082947 C9.44160084,16.8717341 8.7396598,17.5716901 7.87191384,17.5716901 L1.56968699,17.5716901 C0.702772806,17.5716901 0,16.8711319 0,16.0083764 L0,9.76343563 C0,8.90004137 0.703023092,8.20012203 1.56808849,8.20012203 L1.8050915,8.20012203 C2.67112286,8.20012203 3.37317999,8.89887779 3.37317999,9.76340573 L3.37317999,11.5303026 C7.02246966,7.0011466 12.6368019,4.10006101 18.9337358,4.10006101 Z M24.9692039,16.2475322 C25.3593353,15.8566248 25.9942968,15.8595786 26.3910836,16.2541465 C26.7872701,16.6493159 26.7902328,17.2885606 26.3976979,17.6812694 L26.3976979,17.6812694 L20.9602176,24.9046287 C20.8558337,25.0979895 20.7221957,25.2795234 20.5592737,25.4427457 C19.6460008,26.3577019 18.1583854,26.3507819 17.2365918,25.4272893 C16.3147982,24.5037967 16.3078908,23.0134394 17.2211638,22.0984832 L17.208,22.113 L17.198,22.103 L17.2903172,22.0319602 C17.4084428,21.9228711 17.5351702,21.8283033 17.6682448,21.7482463 Z M22.4325561,7.10542736e-15 C23.0795279,6.80356566e-15 23.6040021,0.524474241 23.6040021,1.171446 C23.6040021,1.81841777 23.0795279,2.34289201 22.4325561,2.34289201 L15.3338473,2.34289201 C14.6868755,2.34289201 14.1624013,1.81841777 14.1624013,1.171446 C14.1624013,0.524474241 14.6868755,7.22427414e-15 15.3338473,7.10542736e-15 L22.4325561,7.10542736e-15 Z" id="Isotype" fill="#0E82F5"></path>
        </g>
    </g>
</svg>