<?xml version="1.0" encoding="UTF-8"?>
<svg width="164px" height="38px" viewBox="0 0 164 38" version="1.1" xmlns="http://www.w3.org/2000/svg" xmlns:xlink="http://www.w3.org/1999/xlink">
    <!-- Generator: Sketch 60.1 (88133) - https://sketch.com -->
    <title>logo-vadb</title>
    <desc>Created with Sketch.</desc>
    <g id="Page-1" stroke="none" stroke-width="1" fill="none" fill-rule="evenodd">
        <path d="M19.0697674,0 L19.0697674,17.1 L20.9876412,17.1 L20.9876412,0 L34.3255571,0 C36.4319588,0 38.1395349,1.70039849 38.1395349,3.80002425 L38.1395349,3.80002425 L38.1395349,34.1999757 C38.1395349,36.2986712 36.4328926,38 34.3255571,38 L34.3255571,38 L19.0697674,38 L0,19 L0,3.80002425 C0,1.70132881 1.70664231,0 3.81397783,0 L3.81397783,0 L19.0697674,0 Z M61.0232558,0 L80.0930233,19 L80.0930233,34.1999757 C80.0930233,36.2986712 78.3863809,38 76.2790454,38 L76.2790454,38 L61.0341528,38 L61.0341528,20.9 L59.1162791,20.9 L59.1162791,38 L45.7674662,38 C43.6610644,38 41.9534884,36.2996015 41.9534884,34.1999757 L41.9534884,34.1999757 L41.9534884,3.80002425 C41.9534884,1.70132881 43.6601307,2.7000624e-15 45.7674662,2.7000624e-15 L45.7674662,2.7000624e-15 L61.0232558,0 Z M110.604651,2.7000624e-15 L122.046512,11.4 L122.046512,26.6 L110.604651,38 L87.7209546,38 C85.6145528,38 83.9069767,36.2996015 83.9069767,34.1999757 L83.9069767,3.80002425 C83.9069767,1.70132881 85.6136191,2.7000624e-15 87.7209546,2.7000624e-15 L110.604651,2.7000624e-15 Z M160.186022,0 C162.292424,0 164,1.70039849 164,3.80002425 L164,3.80002425 L164,13.1649712 L158.143545,19 L164,24.8350288 L164,34.1999757 C164,36.2986712 162.293358,38 160.186022,38 L160.186022,38 L129.674443,38 C127.568041,38 125.860465,36.2996015 125.860465,34.1999757 L125.860465,34.1999757 L125.860465,3.80002425 C125.860465,1.70132881 127.567107,0 129.674443,0 L129.674443,0 Z M102.987641,11.4 L101.069767,11.4 L101.069767,28.5 L102.987641,28.5 L102.987641,11.4 Z M144.94113,11.4 L143.023256,11.4 L143.023256,28.5 L144.94113,28.5 L144.94113,11.4 Z" id="logo-vadb" fill="#FE1616"></path>
    </g>
</svg>