<?xml version="1.0" encoding="UTF-8"?>
<svg width="192px" height="45px" viewBox="0 0 192 45" version="1.1" xmlns="http://www.w3.org/2000/svg" xmlns:xlink="http://www.w3.org/1999/xlink">
    <!-- Generator: Sketch 60.1 (88133) - https://sketch.com -->
    <title>logo-webdox</title>
    <desc>Created with Sketch.</desc>
    <g id="Page-1" stroke="none" stroke-width="1" fill="none" fill-rule="evenodd">
        <g id="logo-webdox">
            <path d="M122.353063,8.1824884 L122.353063,17.1932287 C123.185063,16.808168 124.541653,16.5641901 125.654309,16.5641901 C130.519358,16.5641901 133.820604,19.9644994 133.820604,25.7488972 C133.820604,32.8300906 130.240801,36.127505 124.265719,36.127505 C121.656407,36.127505 119.155686,35.4974055 117.625457,34.7596376 L117.625457,8.1824884 L122.353063,8.1824884 Z M105.327909,16.3878895 C110.505614,16.3878895 113.388237,19.8237348 113.388237,24.9775028 C113.388237,25.5036464 113.388237,26.0287293 113.318466,26.5898785 L101.260761,28.2388508 C101.67886,31.0090608 103.693286,32.3748066 106.438466,32.3748066 C108.317024,32.3748066 110.33145,31.8847293 111.651843,31.183558 L113.00686,34.7583646 C111.443057,35.5661436 108.803319,36.1267624 106.092237,36.1267624 C99.9073189,36.1267624 96.6401713,32.0602873 96.6401713,26.2392928 C96.6401713,20.4533039 99.8726959,16.3878895 105.327909,16.3878895 Z M152.340211,8.18206409 L152.340211,34.7597436 C151.332998,35.3919646 148.970243,36.0570696 146.712407,36.0570696 C141.187424,36.0570696 138.024145,32.2356331 138.024145,26.5546608 C138.024145,20.8063293 141.117129,16.6321856 146.642112,16.6321856 C148.102047,16.6321856 149.560932,16.9132906 150.289063,17.1933348 L150.289063,8.18206409 L152.340211,8.18206409 Z M165.476788,16.4576884 C170.551148,16.4576884 173.189837,20.6652464 173.189837,26.2401414 C173.189837,31.8145061 170.551148,36.0570696 165.476788,36.0570696 C160.402952,36.0570696 157.760066,31.8145061 157.760066,26.2401414 C157.760066,20.6652464 160.402952,16.4576884 165.476788,16.4576884 Z M71.343332,16.8076906 L74.0187418,28.3796685 C74.3313976,29.7798895 74.5055615,31.4628066 74.5055615,31.4628066 L74.5758566,31.4628066 C74.5758566,31.4628066 74.8528402,29.7798895 75.2001189,28.3796685 L78.2217582,16.8076906 L82.566414,16.8076906 L85.5901517,28.3796685 C85.9384795,29.7798895 86.2170369,31.4628066 86.2170369,31.4628066 L86.2857582,31.4628066 C86.2857582,31.4628066 86.458873,29.7798895 86.7720533,28.3796685 L89.4474631,16.8076906 L94.2096926,16.8076906 L88.7523812,35.7074917 L83.8511353,35.7074917 L80.9685123,24.942232 C80.6196599,23.6443757 80.4465451,22.1030718 80.4465451,22.1030718 L80.3767746,22.1030718 C80.3767746,22.1030718 80.1695615,23.6443757 79.8222828,24.942232 L76.9370369,35.7074917 L72.0378894,35.7074917 L66.5816271,16.8076906 L71.343332,16.8076906 Z M179.306768,16.8076906 L184.134571,24.4160884 L184.205916,24.4160884 L189.07044,16.8076906 L191.397522,16.8076906 L185.421916,25.8889724 L191.883293,35.7074917 L189.555686,35.7074917 L184.205916,27.3963315 L184.134571,27.3963315 L178.819424,35.7074917 L176.491293,35.7074917 L182.953194,25.8889724 L176.976539,16.8076906 L179.306768,16.8076906 Z M146.744932,18.3495779 C142.368801,18.3495779 140.074243,21.8220199 140.074243,26.5212464 C140.074243,31.1833459 142.402375,34.3407381 146.676735,34.3407381 C147.997129,34.3407381 149.698899,33.9530254 150.289063,33.6029702 L150.289063,18.8757215 C149.664801,18.6312133 148.030178,18.3495779 146.744932,18.3495779 Z M165.476788,18.1750807 C161.618952,18.1750807 159.812788,21.6114564 159.812788,26.2401414 C159.812788,30.8677657 161.618952,34.303611 165.476788,34.303611 C169.334099,34.303611 171.139214,30.8677657 171.139214,26.2401414 C171.139214,21.6114564 169.334099,18.1750807 165.476788,18.1750807 Z M124.75044,20.2084773 C123.882768,20.2084773 122.944276,20.4201017 122.353063,20.7001459 L122.353063,31.9894276 C122.80526,32.2010519 123.672932,32.3760796 124.541653,32.3760796 C127.252735,32.3760796 129.059424,30.3054497 129.059424,26.1350188 C129.059424,22.4164773 127.425325,20.2084773 124.75044,20.2084773 Z M105.222466,19.8598011 C102.755843,19.8598011 101.016827,21.6822099 100.948106,25.2230718 L108.803319,24.135779 C108.803319,21.2966188 107.41263,19.8598011 105.222466,19.8598011 Z" id="Logotype" fill="#05A8F3"></path>
            <g id="Isotype">
                <path d="M62.1503746,0.106428582 C64.4519499,0.106428582 63.9419783,2.8162098 63.9419783,2.8162098 C63.9419783,2.8162098 50.6451797,39.0648197 49.7501823,41.5159844 C48.8546486,43.9666069 48.3441408,44.3542606 48.3441408,44.3542606 L42.0174901,22.4792021 L50.9674646,0.0619703867 C50.9674646,0.0619703867 59.8504081,0.106428582 62.1503746,0.106428582" id="Fill-1" fill="#05A8F3"></path>
                <path d="M13.0216641,0.0413135912 C13.0216641,0.0413135912 4.14140181,0.0863139595 1.83875409,0.0863139595 C-0.462284893,0.0863139595 0.0482229391,2.79392648 0.0482229391,2.79392648 C0.0482229391,2.79392648 13.3455577,39.0441629 14.2416277,41.4942432 C15.1355526,43.9454079 15.6465967,44.3303508 15.6465967,44.3303508 L21.9716386,22.4563766 L13.0216641,0.0413135912 Z" id="Fill-3" fill="#05A8F3"></path>
                <path d="M22.94954,22.8543859 L16.6207443,44.5272138 C16.6207443,44.5272138 17.0052339,44.9772175 18.2836485,44.9772175 L27.168737,44.9772175 C27.168737,44.9772175 29.0868951,44.847096 29.6612165,42.3975579 C30.2366103,39.9463932 31.9622554,33.6897155 31.9622554,33.6897155 L22.94954,22.8543859 Z" id="Fill-5" fill="#048CCB"></path>
                <path d="M41.0400714,22.876127 L32.0278922,33.712541 C32.0278922,33.712541 33.7530011,39.9692187 34.3294674,42.419299 C34.9037887,44.8710058 36.8203381,45.000043 36.8203381,45.000043 L45.7070353,45.000043 C46.9865224,45.000043 47.3694033,44.5473285 47.3694033,44.5473285 L41.0400714,22.876127 Z" id="Fill-7" fill="#048CCB"></path>
                <path d="M24.0367286,0.0211989687 L14.1906841,0.0211989687 L23.0135679,22.2090914 L31.9624699,12.6630494 L27.2343738,1.82663543 C27.2343738,1.82663543 26.5935577,0.0211989687 24.0367286,0.0211989687" id="Fill-10" fill="#048CCB"></path>
                <path d="M49.7986055,-8.8817842e-15 L39.9536335,-8.8817842e-15 C37.3957319,-8.8817842e-15 36.7586696,1.80543646 36.7586696,1.80543646 L32.0284284,12.6407661 L40.9767942,22.1878924 L49.7986055,-8.8817842e-15 Z" id="Fill-12" fill="#048CCB"></path>
                <polygon id="Fill-15" fill="#05A8F3" points="32.0246747 13.8767582 23.8989129 22.5439375 31.9672962 32.3236561 40.0919854 22.5439375"></polygon>
            </g>
        </g>
    </g>
</svg>