<?xml version="1.0" encoding="UTF-8"?>
<svg width="120px" height="54px" viewBox="0 0 120 54" version="1.1" xmlns="http://www.w3.org/2000/svg" xmlns:xlink="http://www.w3.org/1999/xlink">
    <!-- Generator: Sketch 60.1 (88133) - https://sketch.com -->
    <title>logo-weedly</title>
    <desc>Created with Sketch.</desc>
    <g id="Paginas" stroke="none" stroke-width="1" fill="none" fill-rule="evenodd">
        <path d="M86.8999499,0.426444214 C87.3650929,-0.774574638 91.6702699,0.781617284 92.0683028,2.36610814 C92.6402262,4.64282304 92.3354762,13.1274616 92.2071135,16.9912854 C92.0787507,20.8551092 91.4731706,33.5560687 91.7020934,34.3688469 C92.2738874,36.3989708 93.4377905,34.8458528 95.1938028,29.7094928 C94.9968347,28.6383949 96.1464599,16.0237415 97.0173316,14.574783 C97.8882032,13.1258245 101.875515,16.0237415 102.351923,17.5194192 C102.82833,19.0150969 101.928839,22.0682245 101.646702,24.9443394 C101.364565,27.8204543 101.099081,32.9895767 102.096981,33.3839166 C103.094881,33.7782564 103.893367,31.247909 105.497907,24.9443394 C107.102447,18.6407698 106.177768,16.8368997 107.069691,16.4582438 C108.359548,15.9106493 111.3652,16.912012 112.188297,18.0021014 C113.011394,19.0921908 112.958869,25.7130854 112.573583,34.5829007 C112.571058,34.6410166 112.568413,34.6992529 112.565647,34.7576053 C114.75756,32.5489893 116.480664,28.9194641 117.735305,23.8689883 C118.610632,23.7199835 119.335319,24.2377586 119.909366,25.4223134 C120.630136,26.9096332 116.962426,36.1057843 112.092562,39.5932808 C110.972296,47.2631268 108.106088,54.9070467 104.142931,53.9123864 C102.093403,53.3980025 101.200777,52.8471319 100.961829,52.278907 C99.3751538,52.1727382 95.2351697,50.2036835 95.8249004,45.9108026 C96.358175,42.0288869 101.337111,39.8534918 106.172366,38.0438702 C106.454335,35.697985 106.659112,33.0305671 106.787394,30.042089 C105.603939,36.9908268 102.879681,38.515124 100.848483,37.5766903 C99.4943509,36.9510678 98.1473312,35.8263588 96.8074238,34.2025632 C95.5971925,38.5751068 93.8148053,40.3018953 91.4602621,39.3829287 C89.1057189,38.4639621 87.375823,36.8639528 86.2705745,34.5829007 C84.880896,37.7310884 83.0681125,38.7290182 80.8322243,37.5766903 C78.596336,36.4243624 76.8365323,34.621409 75.5528131,32.1678302 C74.653529,38.0423159 72.3849863,40.1580805 68.7471847,38.515124 C66.5027675,37.5014678 65.1980869,35.8769561 64.4904078,33.9971186 C62.5254804,36.6528195 59.4161213,39.6307642 55.7081219,39.7925059 C52.8341553,39.9178674 49.5561522,37.6793698 48.059755,33.3997599 C46.1351771,36.1847674 42.8387878,39.6184937 38.8494811,39.7925059 C35.6854593,39.9305195 32.0317307,37.2034509 30.8047308,32.0419606 C28.9987832,33.4535664 26.1401384,33.1791687 25.1432258,32.3217615 C23.2747289,36.7848001 21.0880594,39.0340261 18.5832171,39.0694396 C16.0783749,39.104853 14.127807,36.7013053 12.7315136,31.8587964 C11.4237643,36.8959852 9.12454836,38.7598072 5.83386583,37.4502624 C1.77554194,35.8352307 0.281955316,32.4066691 0.0351753884,27.8254757 C-0.211604539,23.2442824 0.908472996,16.9226961 1.2665236,15.2338694 C1.6245742,13.5450426 2.74564396,13.3283235 4.95447314,14.2810964 C7.16330233,15.2338694 7.5025007,16.1689827 7.32772779,17.6238545 C7.15295487,19.0787263 5.60990804,32.846389 6.77266643,33.4241136 C8.68561916,34.3745775 10.2293363,25.7419056 10.8195016,21.0934721 C11.3400518,16.9933621 11.096326,16.1981546 11.7510739,15.833898 C13.8380128,14.6728689 17.6724902,17.4711677 17.7831151,19.1130432 C17.8436068,20.0108504 17.6606153,23.3107294 17.4302058,27.3931503 C17.2272226,30.9896319 16.9608507,34.474322 18.1176866,34.6808624 C19.2818139,34.8887046 20.5603208,31.9391442 21.9532073,25.832181 C20.4413745,18.9601161 21.4731163,13.1457234 23.5023822,12.6565446 C25.531648,12.1673657 28.180554,14.6421748 28.4676862,17.6238545 C28.6591077,19.611641 27.9960257,23.1968118 26.4784404,28.3793669 C27.8776288,29.175357 29.1601159,28.9098504 30.3259016,27.582847 C30.2172823,24.9078338 30.2292879,20.8667362 31.7708978,17.8636455 C33.6474449,14.2080897 35.5798408,13.2959842 38.1014438,14.7860045 C44.0434461,9.32763472 46.624493,16.3490594 44.4202775,23.5787904 C42.9508006,28.3986111 40.2960358,30.3441346 36.4559832,29.4153609 C36.8502642,32.9726377 37.9109545,34.7706625 39.6380542,34.8094352 C42.0806197,34.8642699 44.6083619,32.7232183 47.2212808,28.3862806 C47.0906215,25.7777843 46.9242256,21.1856334 48.6295386,17.8636455 C50.5060857,14.2080897 52.4384816,13.2959842 54.9600845,14.7860045 C60.9020869,9.32763472 63.4831338,16.3490594 61.2789183,23.5787904 C59.8094414,28.3986111 57.1546766,30.3441346 53.314624,29.4153609 C53.708905,32.9726377 54.7695953,34.7706625 56.496695,34.8094352 C58.8422049,34.862091 61.2662569,32.8899011 63.7688512,28.8928655 C63.8406793,26.3030433 64.398998,23.7857376 64.760343,22.0492814 C65.6517197,17.7657386 69.1654066,13.710143 71.585564,13.7439061 C73.1990023,13.7664149 74.5214186,14.52636 75.5528131,16.0237415 C75.7041979,6.93909657 76.0030507,1.80694502 76.4493714,0.627286833 C77.0155793,-0.869241855 81.2074805,1.19976365 81.5419638,2.36610814 C82.084982,4.25961496 81.7605364,12.6494396 81.7605364,15.6752536 C81.7605364,18.7010675 81.0321918,32.5795185 81.7605364,33.3839166 C82.6890626,34.4093992 83.8928537,32.6605523 85.3719097,28.1373759 C85.9102704,10.9036611 86.4196171,1.66668392 86.8999499,0.426444214 Z M105.587204,41.90501 L105.403889,42.0012421 C104.282822,42.6174217 103.22504,43.5668618 102.289632,45.0844086 C100.576933,47.8629851 101.805411,49.3278665 102.366487,49.8951182 C103.756358,48.557652 104.829787,45.8944991 105.587204,41.90501 Z M75.2975759,19.5753635 C70.8635948,19.9532135 67.8583066,34.9024868 70.6430131,34.6088731 C72.6469024,34.3975871 74.5227643,26.6405386 75.2233087,22.3435409 C75.2728202,20.4980893 75.2975759,19.5753635 75.2975759,19.5753635 Z M39.5927847,25.4969265 C40.0454402,25.12733 40.4889444,16.9343603 39.3391485,17.7573224 C37.9909785,18.7222699 37.043374,21.3763504 36.4963349,25.7195639 C38.2588644,25.8175367 39.2910143,25.7433242 39.5927847,25.4969265 Z M56.4514255,25.4969265 C56.904081,25.12733 57.3475852,16.9343603 56.1977892,17.7573224 C54.8496193,18.7222699 53.9020147,21.3763504 53.3549757,25.7195639 C55.1175052,25.8175367 56.1496551,25.7433242 56.4514255,25.4969265 Z" id="logo-weedly" fill="#48B04B"></path>
    </g>
</svg>