<?xml version="1.0" encoding="UTF-8"?>
<svg width="82px" height="82px" viewBox="0 0 82 82" version="1.1" xmlns="http://www.w3.org/2000/svg" xmlns:xlink="http://www.w3.org/1999/xlink">
    <!-- Generator: Sketch 60.1 (88133) - https://sketch.com -->
    <title>icono-servicio-mensual</title>
    <desc>Created with Sketch.</desc>
    <g id="Paginas" stroke="none" stroke-width="1" fill="none" fill-rule="evenodd">
        <g id="Destacado/Empresa" transform="translate(-3704.000000, -905.000000)" fill="#000000" fill-rule="nonzero">
            <g id="icono-servicio-mensual" transform="translate(3704.000000, 905.000000)">
                <path d="M18,46 C27.9411255,46 36,54.0588745 36,64 C36,73.9411255 27.9411255,82 18,82 C8.0588745,82 0,73.9411255 0,64 C0,54.0588745 8.0588745,46 18,46 Z M18,58 C14.6862915,58 12,60.6862915 12,64 C12,67.3137085 14.6862915,70 18,70 C21.3137085,70 24,67.3137085 24,64 C24,60.6862915 21.3137085,58 18,58 Z" id="Oval-Copy-5"></path>
                <path d="M64,0 C73.9411255,0 82,8.0588745 82,18 C82,27.9411255 73.9411255,36 64,36 C54.0588745,36 46,27.9411255 46,18 C46,8.0588745 54.0588745,0 64,0 Z M64,12 C60.6862915,12 58,14.6862915 58,18 C58,21.3137085 60.6862915,24 64,24 C67.3137085,24 70,21.3137085 70,18 C70,14.6862915 67.3137085,12 64,12 Z" id="Oval-Copy-4"></path>
                <path d="M64,46 C73.9411255,46 82,54.0588745 82,64 C82,73.9411255 73.9411255,82 64,82 C54.0588745,82 46,73.9411255 46,64 C46,54.0588745 54.0588745,46 64,46 Z M64,58 C60.6862915,58 58,60.6862915 58,64 C58,67.3137085 60.6862915,70 64,70 C67.3137085,70 70,67.3137085 70,64 C70,60.6862915 67.3137085,58 64,58 Z" id="Oval-Copy-6" opacity="0.319999993"></path>
                <path d="M18,0 C27.9411255,0 36,8.0588745 36,18 C36,27.9411255 27.9411255,36 18,36 C8.0588745,36 0,27.9411255 0,18 C0,8.0588745 8.0588745,0 18,0 Z M18,12 C14.6862915,12 12,14.6862915 12,18 C12,21.3137085 14.6862915,24 18,24 C21.3137085,24 24,21.3137085 24,18 C24,14.6862915 21.3137085,12 18,12 Z" id="Oval-Copy-3"></path>
            </g>
        </g>
    </g>
</svg>