<?xml version="1.0" encoding="UTF-8"?>
<svg width="82px" height="82px" viewBox="0 0 82 82" version="1.1" xmlns="http://www.w3.org/2000/svg" xmlns:xlink="http://www.w3.org/1999/xlink">
    <!-- Generator: Sketch 60.1 (88133) - https://sketch.com -->
    <title>icono-servicio-taller</title>
    <desc>Created with Sketch.</desc>
    <g id="Paginas" stroke="none" stroke-width="1" fill="none" fill-rule="evenodd">
        <g id="Destacado/Empresa" transform="translate(-4559.000000, -905.000000)" fill="#000000" fill-rule="nonzero">
            <g id="icono-servicio-taller" transform="translate(4559.000000, 904.000000)">
                <path d="M19.5432127,75.9619815 C23.845393,78.5920373 28.707778,80.474862 33.9742534,81.3983315 L34.6634638,81.5133261 C38.3384631,82.0953888 41.9757143,82.175774 45.5045299,81.8040078 C45.7470394,76.0370164 41.7943927,70.8087492 36.0170994,69.5789119 L35.7166589,69.5188831 C35.246865,69.4311166 34.78083,69.3324971 34.3187598,69.2231529 L33.6286537,69.051109 C27.8094948,67.5261499 21.8683194,70.5451855 19.5646484,75.9099756 L19.5432127,75.9619815 Z M63.4235986,59.7172862 L63.2109938,59.9582538 C62.9055078,60.3137948 62.5910767,60.6619445 62.2680129,61.0023854 L61.7769816,61.5072256 C57.5211507,65.7763317 57.1460512,72.4482472 60.6468257,77.1420678 C68.5822828,72.8807208 75.0222918,66.0630297 78.6833629,57.6073427 C73.826281,54.556767 67.3675315,55.3639859 63.4235986,59.7172862 Z M0.0400408579,39.7420097 C-0.348822872,49.0755762 2.54728108,57.9642413 7.8136516,65.1630478 C12.9022131,62.4965626 15.4529898,56.4955441 13.6621755,50.8920424 L13.5620755,50.5922564 C13.4082371,50.1505968 13.2654857,49.7054266 13.1339658,49.2571217 L12.9451279,48.5823602 C11.4259909,42.8805362 6.0475315,39.2363899 0.366332659,39.710045 L0.0400408579,39.7420097 Z M81.9897982,42.1051211 C82.1038164,32.7935553 78.9590954,23.9812231 73.4761003,16.920197 C68.4668578,19.7325666 66.0909908,25.8041831 68.0419605,31.3527874 L68.1526782,31.6548971 C68.3195568,32.0923641 68.4754533,32.533629 68.6202117,32.9783086 L68.8289763,33.6478411 C70.5150602,39.3025466 75.9983141,42.7870201 81.663135,42.1465725 L81.9897982,42.1051211 Z M22.1963009,5.44060129 C14.217321,9.48988826 7.66689204,16.0892189 3.79877739,24.3414735 C8.56522428,27.5349054 15.0468951,26.9169635 19.1169906,22.6794313 L19.3365794,22.4447046 C19.6527747,22.0976881 19.9777011,21.7583126 20.3110335,21.4268938 L20.817296,20.9357727 C25.1959351,16.7913317 25.7640113,10.1316617 22.4011039,5.33918745 L22.1963009,5.44060129 Z M46.6641442,1.40986539 C42.814011,0.863113889 39.0101943,0.86502866 35.3340637,1.35839614 C35.2536789,7.12754769 39.3484056,12.2416603 45.1555575,13.3111372 L45.4574419,13.3628306 C45.930824,13.4378069 46.4005922,13.5236804 46.8665497,13.6203274 L47.5626035,13.7733626 C53.4419044,15.1396878 59.3161411,11.9296195 61.450751,6.46749704 C57.4031607,4.14859976 52.8890528,2.47952696 48.0309909,1.62681501 L47.3346555,1.51057047 L46.6641442,1.40986539 Z" id="Shape" opacity="0.200000003"></path>
                <path d="M41,23.7195122 C50.9411255,23.7195122 59,31.6801077 59,41.5 C59,51.3198923 50.9411255,59.2804878 41,59.2804878 C31.0588745,59.2804878 23,51.3198923 23,41.5 C23,31.6801077 31.0588745,23.7195122 41,23.7195122 Z M41,35.7195122 C37.6535559,35.7195122 35,38.3407076 35,41.5 C35,44.6592924 37.6535559,47.2804878 41,47.2804878 C44.3464441,47.2804878 47,44.6592924 47,41.5 C47,38.3407076 44.3464441,35.7195122 41,35.7195122 Z" id="Oval-Copy-7"></path>
            </g>
        </g>
    </g>
</svg>